max v2;#N vpatcher 219 333 572 838;#P origin 100 -11;#P window setfont "Sans Serif" 9.;#P hidden newex 1093 155 58 196617 pvar store;#P hidden newex 1066 67 53 196617 t b b b b;#P hidden newex 205 1035 47 196617 pvar AT;#P hidden newex 298 547 47 196617 pvar AT;#P hidden newex 204 1091 81 196617 route AT+CPAS;#P hidden newex 85 1096 87 196617 route OK +CPAS:;#P comment 37 132 100 196617 Soft Reset;#P noclick;#P comment 37 117 100 196617 Re-Init Phone;#P noclick;#P button 18 115 15 0;#P objectname Init;#P hidden newex 812 239 89 196617 pvar onConnected;#P hidden newex 838 293 49 196617 pvar Init;#P hidden newex 636 134 49 196617 pvar Init;#P hidden newex 832 267 61 196617 delay 1000;#N comlet Hung Up;#P hidden outlet 183 1453 15 0;#P hidden newex 462 283 61 196617 delay 3333;#P hidden newex 122 1264 20 196617 t b;#P hidden newex 46 1263 20 196617 t b;#P hidden inlet 46 1238 15 0;#P hidden newex 122 1288 64 196617 pvar hangup;#P hidden newex 46 1288 67 196617 pvar answer;#P hidden inlet 122 1235 15 0;#P hidden newex 50 1338 100 196617 pvar onIncomingCall;#P hidden newex 129 1391 109 196617 pvar onRingTerminate;#P hidden newex 83 1367 74 196617 pvar onPickUp;#P hidden newex 247 1418 58 196617 pvar reset;#P hidden newex 140 1418 90 196617 pvar onDidHangUp;#N comlet Canceled Call;#P hidden outlet 129 1453 15 0;#P hidden outlet 247 1453 15 0;#N comlet Incoming Call;#P hidden outlet 50 1453 15 0;#N comlet Pick Up;#P hidden outlet 83 1453 15 0;#P hidden newex 1109 108 40 196617 uzi 10;#P hidden newex 1109 129 64 196617 pvar hangup;#P hidden newex 1068 34 53 196617 closebang;#P hidden newex 817 314 106 196617 print "Comport open";#P button 195 407 15 0;#P objectname queryPIN;#P hidden newex 454 384 75 196617 pvar queryPIN;#P hidden comment 17 33 78 196617 Dummy inlet;#P hidden inlet 1 29 13 0;#P hidden newex 461 838 60 196617 loadmess 0;#P comment 234 84 74 196617 Refresh Signal;#B color 11;#P noclick;#P hidden newex 384 266 66 196617 pvar getCSQ;#P window setfont "Sans Serif" 24.;#P comment 212 47 29 196632 ´;#P button 305 83 15 0;#P objectname getCSQ;#P window setfont "Sans Serif" 9.;#N vpatcher 30 89 296 335;#P window setfont "Sans Serif" 9.;#P window linecount 0;#P hidden message 130 81 43 196617 1 2 3 4;#P hidden message 87 120 43 196617 1 2 0 0;#P hidden message 60 137 43 196617 1 0 0 0;#P hidden message 40 162 43 196617 0 0 0 0;#P hidden newex 50 50 79 196617 sel 0 1 2 3 4;#P inlet 50 30 15 0;#P outlet 49 199 15 0;#P comment 109 27 100 196617 Format CSQ Display;#P window linecount 1;#P hidden message 104 100 43 196617 1 2 3 0;#P connect 4 0 5 0;#P connect 0 0 2 0;#P connect 8 0 2 0;#P connect 7 0 2 0;#P connect 6 0 2 0;#P connect 5 0 2 0;#P connect 3 0 4 0;#P connect 4 1 6 0;#P connect 4 2 7 0;#P connect 4 3 0 0;#P connect 4 4 8 0;#P pop;#P hidden newobj 461 960 88 196617 p CSQSteps2Bars;#P hidden newex 461 937 52 196617 pvar CSQ;#P user multiSlider 264 45 55 36 0. 4. 4 2921 15 0 1 2 4 0 0;#M frgb 91 91 91;#M brgb 255 255 255;#M rgb2 127 127 127;#M rgb3 0 0 0;#M rgb4 37 52 91;#M rgb5 74 105 182;#M rgb6 112 158 18;#M rgb7 149 211 110;#M rgb8 187 9 201;#M rgb9 224 62 37;#M rgb10 7 114 128;#P noclick;#P objectname CSQDisplay;#P hidden number 461 901 35 9 0 0 0 3 0 0 0 221 221 221 222 222 222 0 0 0;#P objectname CSQ;#P hidden newex 461 988 85 196617 pvar CSQDisplay;#P comment 162 159 33 196617 From:;#B color 11;#P noclick;#P window setfont "Sans Serif" 12.;#P comment 19 352 151 196620 Auto call settings;#B color 6;#P noclick;#P comment 212 124 100 196620 Call Events;#P noclick;#P window setfont "Sans Serif" 9.;#P comment 18 264 100 196617 General Events:;#P noclick;#P comment 18 162 100 196617 Call control:;#P noclick;#P window linecount 36;#P comment 3 45 13 196617 \; \; \; \; \; \; \; \; \; \; \; \; \; \; \; \; \; \; \; \; \; \; \; \; \; \; \; \; \; \; \; \; \; \; \; \;;#P window linecount 1;#P hidden newex 507 594 50 196617 deferlow;#P hidden newex 155 656 47 196617 pvar AT;#P hidden newex 28 653 47 196617 pvar AT;#P hidden newex 639 1168 58 196617 pvar store;#P hidden comment 576 1289 100 196617 Auto read preset 1;#P hidden newex 385 1368 288 196617 pattr "Auto answer after how may rings? (min. 1)" ringcount;#X prestore 1 0 2;#P objectname "Auto answer after how may rings? (min. 1)";#P hidden newex 385 1247 73 196617 pattr comport;#X prestore 1 0 PL2303-0010111D;#P objectname comport;#P hidden message 524 1195 53 196617 readagain;#P hidden message 680 1192 33 196617 clear;#P hidden comment 385 1198 100 196617 Store the comport;#P hidden newex 385 1218 77 196617 pvar portlist 2;#P hidden button 524 1287 15 0;#P hidden newex 524 1261 57 196617 route read;#P objectname deviceaddress[5];#P hidden newex 385 1274 80 196617 prepend symbol;#P objectname deviceaddress[4];#P hidden message 548 1287 14 196617 1;#P hidden message 581 1194 95 196617 store 1 \, writeagain;#P hidden message 716 1209 78 196617 storagewindow;#P hidden newex 581 1169 53 196617 closebang;#P objectname dmx[2];#P hidden comment 649 1493 349 196617 ---------------------------------------------------------------;#P window setfont "Sans Serif" 14.;#P hidden comment 381 1083 173 196622 Handle Settings;#P window setfont "Sans Serif" 9.;#P hidden newex 672 633 61 196617 delay 1000;#P hidden comment 532 734 199 196617 Handle Signal \, PIN and own number;#P hidden message 103 607 21 196617 &F;#P hidden message 65 607 22 196617 &V;#P hidden message 1095 433 15 196617 A;#P hidden message 1078 433 14 196617 H;#P hidden newex 1078 387 64 196617 pvar hangup;#P hidden newex 1095 412 67 196617 pvar answer;#P hidden comment 1077 368 100 196617 Call Control;#P hidden newex 1078 464 47 196617 pvar AT;#P comment 195 386 122 196617 This might brick your SIM;#B color 5;#P noclick;#N vpatcher 20 74 243 234;#P window setfont "Sans Serif" 9.;#P newex 50 72 20 196617 t b;#P message 51 92 42 196617 set ---;#P newex 51 50 109 196617 match send AT+CPIN?;#P inlet 51 30 15 0;#P outlet 51 112 15 0;#P connect 2 0 4 0;#P connect 1 0 2 0;#P connect 4 0 3 0;#P connect 3 0 0 0;#P pop;#P hidden newobj 726 905 88 196617 p detectPINQuery;#P hidden newex 726 932 71 196617 pvar pinState;#P hidden newex 726 884 47 196617 pvar AT;#P hidden newex 365 575 73 196617 pvar listports;#P comment 77 71 100 196617 Refresh port list;#P noclick;#P button 60 70 15 0;#P objectname listports;#P comment 214 408 35 196617 State:;#B color 5;#P noclick;#P comment 44 456 185 196617 print debug information to max window;#B color 2;#P toggle 24 455 15 0;#P objectname debug;#P hidden newex 27 1025 59 196617 pvar debug;#P hidden newex 843 105 59 196617 pvar debug;#P hidden newex 843 82 62 196617 route debug;#P hidden newex 55 1047 51 196617 tosymbol;#P objectname debugOut;#P hidden newex 63 1164 29 196617 gate;#N vpatcher 20 74 246 329;#P window setfont "Sans Serif" 9.;#P newex 101 99 48 196617 loadbang;#P message 63 125 22 196617 set;#P newex 50 75 62 196617 prepend set;#P newex 50 50 44 196617 zl nth 3;#P inlet 63 105 15 0;#P inlet 50 30 15 0;#P outlet 50 156 15 0;#P connect 1 0 3 0;#P connect 3 0 4 0;#P connect 4 0 0 0;#P connect 5 0 0 0;#P connect 6 0 5 0;#P connect 2 0 5 0;#P pop;#P hidden newobj 718 824 92 196617 p numberResponse;#P hidden newex 612 923 71 196617 pvar pinState;#P window linecount 2;#P comment 231 359 81 196617 Enter the PIN !!! CAUTION !!!;#B color 5;#P noclick;#P window linecount 1;#P hidden newex 370 406 73 196617 pvar enterPIN;#P hidden comment 659 565 148 196617 Ask for your own phone number;#P hidden comment 1297 367 148 196617 << simulate states;#P window linecount 2;#P hidden comment 1322 302 148 196617 Handle call detection and state change via polling;#P hidden comment 155 737 148 196617 Handle general messages like OK ERROR RING and NO CARRIER;#P hidden comment 942 782 148 196617 Collect all neccessary messages for a soft reset;#P window linecount 1;#P hidden newex 297 575 50 196617 deferlow;#P hidden newex 531 754 101 196617 pvar modemReponse;#P window linecount 2;#P hidden comment 145 500 86 196617 Switch the device ON/OFF;#P window linecount 1;#P hidden message 462 306 34 196617 +CSQ;#P hidden comment 366 82 100 196617 pinReady;#P hidden newex 462 263 74 196617 pvar pinReady;#P hidden comment 365 39 100 196617 onConnected;#P hidden button 347 38 15 0;#P objectname onConnected;#P hidden newex 698 311 89 196617 pvar onConnected;#P hidden newex 698 285 44 196617 togedge;#P hidden newex 698 260 54 196617 pvar open;#N vpatcher 20 74 314 299;#P window setfont "Sans Serif" 9.;#P window linecount 1;#P newex 50 50 30 196617 t s b;#P newex 51 139 37 196617 zl rev;#P newex 52 112 38 196617 zl join;#N vpatcher 10 59 262 308;#P window setfont "Sans Serif" 9.;#P window linecount 1;#P newex 60 177 51 196617 tosymbol;#P window linecount 0;#P newex 118 29 48 196617 loadbang;#P inlet 60 23 15 0;#P window linecount 1;#P message 118 53 62 196617 separator -;#P newex 51 99 37 196617 zl rev;#P newex 54 123 51 196617 tosymbol;#P message 128 77 59 196617 separator :;#P newex 123 108 51 196617 tosymbol;#P newex 50 144 38 196617 zl join;#P message 50 50 53 196617 time \, date;#P newex 50 77 40 196617 date;#P outlet 50 199 15 0;#P window linecount 0;#P comment 70 219 100 196617 Generate time stamp;#P connect 10 0 3 0;#P connect 3 0 2 0;#P connect 7 0 4 0;#P connect 12 0 1 0;#P connect 2 0 8 0;#P connect 9 0 7 0;#P connect 8 0 7 0;#P connect 4 0 12 0;#P connect 5 0 4 1;#P connect 11 0 9 0;#P connect 6 0 5 0;#P connect 2 1 5 0;#P connect 11 0 6 0;#P pop;#P newobj 75 89 65 196617 p timestamp;#P inlet 50 30 15 0;#P outlet 51 161 15 0;#P window linecount 0;#P comment 88 34 100 196617 format logging of incoming calls;#P connect 2 0 6 0;#P connect 4 0 5 0;#P connect 5 0 1 0;#P connect 6 0 4 0;#P connect 6 1 3 0;#P connect 3 0 4 1;#P pop;#P hidden newobj 859 712 49 196617 p format;#P hidden newex 1024 253 58 196617 pvar reset;#P hidden newex 946 392 74 196617 pvar onPickUp;#P hidden message 465 353 136 196617 +EXUNSOL=\\\\"SQ\\\\"\\\\\\\,1;#P hidden comment 1024 235 138 196617 Auto answer after X rings;#P hidden newex 1024 329 47 196617 pvar AT;#P hidden newex 1024 280 76 196617 pvar ringcount;#P hidden newex 1024 304 74 196617 sprintf S0=%i;#P hidden newex 990 439 58 196617 pvar reset;#P hidden newex 953 606 58 196617 pvar reset;#P button 18 131 15 0;#P objectname reset;#P hidden newex 958 952 58 196617 pvar reset;#P comment 125 371 37 196617 Rings;#B color 6;#P noclick;#P comment 18 369 67 196617 Answer after;#B color 6;#P noclick;#P window linecount 3;#N vpatcher 116 308 429 746;#P window setfont "Sans Serif" 9.;#P window linecount 0;#P newex 164 196 27 196617 t i i;#P newex 226 108 30 196617 t b b;#P newex 225 143 27 196617 i;#P window linecount 1;#P message 188 144 14 196617 0;#P window linecount 0;#P newex 188 225 47 196617 gate 1 0;#P newex 76 275 106 196617 f;#P newex 76 299 29 196617 t b f;#P button 235 65 15 0;#P message 255 143 14 196617 1;#P inlet 219 35 15 0;#P button 139 326 15 0;#P window linecount 1;#P newex 74 165 107 196617 sprintf set 1.\\\, 0. %i;#P newex 74 139 44 196617 * 1000;#P newex 61 327 35 196617 * 30.;#P button 22 53 20 0;#P message 60 197 82 196617 1. \, 0. 180000;#P newex 60 227 65 196617 line 0. 1000;#P inlet 102 25 15 0;#P inlet 60 29 15 0;#P outlet 119 373 15 0;#P outlet 61 360 15 0;#P connect 2 0 5 0;#P connect 9 0 5 0;#P connect 6 0 5 0;#P connect 20 0 4 0;#P connect 5 0 4 0;#P connect 14 0 7 0;#P connect 4 0 7 0;#P connect 7 0 0 0;#P connect 3 0 8 0;#P connect 8 0 9 0;#P connect 4 1 15 0;#P connect 16 0 15 0;#P connect 15 0 14 0;#P connect 14 1 7 1;#P connect 4 1 1 0;#P connect 4 1 10 0;#P connect 12 0 20 0;#P connect 3 0 15 1;#P connect 2 0 17 0;#P connect 20 1 16 0;#P connect 17 0 16 0;#P connect 3 0 18 0;#P connect 19 0 18 0;#P connect 18 0 16 1;#P connect 11 0 19 0;#P connect 11 0 13 0;#P connect 19 1 12 0;#P pop;#P hidden newobj 946 462 55 196617 p CallTimeController;#P window linecount 1;#P hidden newex 968 416 70 196617 pvar calltime;#P hidden newex 946 531 70 196617 pvar timeleft;#P comment 84 410 100 196617 Seconds until hangup;#B color 5;#P noclick;#P number 17 408 61 9 0 0 0 3 0 0 0 255 227 23 222 222 222 0 0 0;#P noclick;#P objectname timeleft;#P comment 84 389 100 196617 Secs. max. Call time;#B color 6;#P noclick;#P number 17 387 61 9 0 0 5 3 0 0 0 74 156 97 222 222 222 0 0 0;#P objectname calltime;#P hidden newex 765 82 70 196617 pvar calltime;#P hidden newex 991 509 64 196617 pvar hangup;#P hidden comment 840 578 148 196617 Get CLIP (State and Response);#N vpatcher 10 59 289 329;#P window setfont "Sans Serif" 9.;#P newex 109 160 62 196617 prepend set;#P newex 86 134 64 196617 fromsymbol;#P message 68 134 14 196617 1;#P newex 50 74 51 196617 zl slice 1;#P message 50 134 14 196617 0;#P newex 50 102 46 196617 sel 0 1;#P newex 50 50 67 196617 route +CLIP:;#P inlet 50 30 15 0;#P outlet 86 156 15 0;#P outlet 50 154 15 0;#P outlet 109 182 15 0;#P connect 3 0 4 0;#P connect 4 0 7 0;#P connect 7 0 5 0;#P connect 5 0 6 0;#P connect 6 0 1 0;#P connect 8 0 1 0;#P connect 5 1 8 0;#P connect 5 2 9 0;#P connect 9 0 2 0;#P connect 9 0 10 0;#P connect 10 0 0 0;#P pop;#P hidden newobj 842 635 53 196617 p GetCLIP;#P hidden comment 948 370 100 196617 Call Timing;#P hidden newex 945 813 62 196617 pvar loaded;#P hidden newex 1003 896 90 196617 pvar onDidHangUp;#P hidden newex 1015 915 109 196617 pvar onRingTerminate;#P hidden message 1276 367 14 196617 4;#P hidden message 1249 366 14 196617 3;#P hidden message 1227 366 14 196617 0;#P hidden message 1339 201 26 196617 500;#P hidden message 1276 202 34 196617 1000;#P hidden newex 1343 175 76 196617 pvar onRinging;#P hidden newex 1276 175 60 196617 pvar onIdle;#P hidden comment 395 555 100 196617 << pvar AT;#B color 11;#P noclick;#P hidden newex 564 960 93 196617 pvar signalDisplay;#P hidden newex 86 1070 101 196617 pvar modemReponse;#P hidden newex 299 670 101 196617 pvar modemReponse;#P hidden newex 1212 324 101 196617 pvar modemReponse;#P hidden newex 1212 176 60 196617 loadmess 1;#P user umenu 18 94 157 196647 1 64 110 1;#X add "--- Choose a serial port ---";#X add Bluetooth-PDA-Sync;#X add Bluetooth-Modem;#X add PL2303-0010111D;#X add usbserial-ENS2Z04S;#P objectname portlist;#P hidden newex 501 567 77 196617 pvar portlist 2;#P comment 60 48 100 196617 Device connected;#P noclick;#P hidden newex 239 832 94 196617 match NO CARRIER;#P hidden button 324 855 15 0;#P comment 37 301 100 196617 ERROR;#B color 11;#P noclick;#P hidden newex 125 814 46 196617 pvar OK;#P comment 37 279 100 196617 OK;#B color 11;#P noclick;#P button 18 300 15 11;#P noclick;#P objectname ERROR;#P hidden newex 160 929 63 196617 pvar ERROR;#P comment 37 322 100 196617 NOCARRIER;#B color 11;#P noclick;#P hidden newex 207 1061 57 196617 route send;#P button 173 236 15 11;#P noclick;#P objectname onActiveCall;#P comment 192 238 100 196617 Active Call;#B color 11;#P noclick;#P hidden newex 1263 723 76 196617 pvar onRinging;#P hidden newex 1230 748 60 196617 pvar onIdle;#P hidden newex 1212 386 27 196617 i;#P hidden newex 1297 698 91 196617 pvar onActiveCall;#P hidden newex 1277 642 100 196617 pvar onIncomingCall;#P hidden newex 1294 584 109 196617 pvar onRingTerminate;#P hidden newex 1306 465 90 196617 pvar onDidHangUp;#P hidden newex 1319 517 74 196617 pvar onPickUp;#P hidden newex 1212 346 72 196617 route +CPAS:;#P hidden button 1278 698 15 0;#P hidden button 1245 723 15 0;#P hidden button 3077 348 15 0;#P hidden button 1212 749 15 0;#P hidden newex 1212 668 111 196617 sel 0 3 4;#P hidden newex 1272 551 55 196617 match 3 0;#P hidden button 1272 584 15 0;#P hidden newex 1255 613 55 196617 match 0 3;#P hidden button 1255 642 15 0;#P hidden button 1283 465 15 0;#P hidden newex 1283 440 55 196617 match 4 0;#P hidden newex 1278 492 55 196617 match 3 4;#P hidden button 1278 517 15 0;#P hidden newex 1230 412 131 196617 change;#P button 173 303 15 11;#P noclick;#P objectname onPickUp;#P comment 192 303 100 196617 Picked up;#B color 11;#P noclick;#P hidden newex 658 680 86 196617 pattrforward AT;#P hidden newex 672 609 58 196617 pvar reset;#P hidden newex 658 584 67 196617 pvar number;#P hidden message 658 654 39 196617 +cnum;#P hidden newex 244 529 32 196617 sel 0;#P hidden toggle 244 509 15 0;#P button 192 320 15 11;#P noclick;#P objectname onDidHangUp;#P comment 214 320 100 196617 Hung up;#B color 11;#P noclick;#P button 192 283 15 11;#P noclick;#P objectname onRingTerminate;#P comment 214 283 100 196617 Did hang up early;#B color 11;#P noclick;#P button 173 219 15 11;#P noclick;#P objectname onRinging;#P comment 192 219 100 196617 Ringing;#B color 11;#P noclick;#P button 173 265 15 11;#P noclick;#P objectname onIncomingCall;#P comment 192 265 100 196617 Incoming Call;#B color 11;#P noclick;#P button 173 202 15 11;#P noclick;#P objectname onIdle;#N vpatcher 10 59 610 459;#P origin 0 4;#P window setfont "Sans Serif" 9.;#P window linecount 1;#P newex 294 290 171 196617 sprintf set "Incoming call from %s";#P message 232 324 195 196617 Incoming call from "+4917624053500";#P newex 227 286 32 196617 sel 4;#P comment 272 161 100 196617 << some call info;#P button 252 160 15 0;#P button 356 250 15 0;#P button 385 250 15 0;#P button 298 250 15 0;#P button 217 250 15 0;#P button 268 250 15 0;#P button 242 250 15 0;#P button 194 250 15 0;#P number 380 203 35 9 0 0 0 3 0 0 0 221 221 221 222 222 222 0 0 0;#P message 342 270 110 196617 "+4917624053500";#P newex 347 221 62 196617 prepend set;#P number 292 228 35 9 0 0 0 3 0 0 0 221 221 221 222 222 222 0 0 0;#P number 239 224 35 9 0 0 0 3 0 0 0 221 221 221 222 222 222 0 0 0;#P number 272 208 35 9 0 0 0 3 0 0 0 221 221 221 222 222 222 0 0 0;#P number 221 205 35 9 0 0 0 3 0 0 0 221 221 221 222 222 222 0 0 0;#P number 194 223 35 9 0 0 0 3 0 0 0 221 221 221 222 222 222 0 0 0;#P newex 195 181 221 196617 unpack i 0 i 0 i 0 i 0 i 0 s 0 i;#P newex 189 140 34 196617 zl len;#P message 50 46 236 196617 +CLCC: 1 \, 1 \, 4 \, 0 \, 0 \, "+4917624053500" \, 145;#P newex 169 393 32 196617 print;#P message 164 83 206 196617 +CLCC: 1 1 4 0 0 "+4917624053500" 145;#P newex 164 112 70 196617 route +CLCC:;#P comment 298 49 258 196617 +CLCC: 1 \, 1 \, 4 \, 0 \, 0 \, "+4917624053500" \, 145;#P newex 245 120 101 196617 pvar modemReponse;#P toggle 434 87 15 0;#P newex 434 120 64 196617 metro 1000;#P comment 291 102 100 196617 Call detection;#P message 432 145 39 196617 +CLCC;#P newex 432 169 86 196617 pattrforward AT;#P message 50 66 238 196617 +CLCC: 1 \, 1 \, 4 \, 0 \, 0 \, "+4917624053500" \, 145;#P window setfont "Sans Serif" 12.;#P window linecount 0;#P comment 13 22 331 196620 Attempt to capture call state from list of calls;#P connect 10 0 9 0;#P connect 7 0 9 0;#P fasten 1 0 9 0 175 111;#P connect 9 0 11 0;#P connect 13 0 11 0;#P connect 33 0 11 0;#P connect 9 0 13 0;#P connect 14 0 15 0;#P connect 15 0 23 0;#P connect 9 0 14 0;#P connect 16 0 26 0;#P connect 14 2 16 0;#P connect 18 0 32 0;#P connect 32 0 33 0;#P connect 34 0 33 0;#P connect 14 4 18 0;#P connect 18 0 24 0;#P connect 9 0 30 0;#P connect 17 0 25 0;#P connect 14 6 17 0;#P connect 14 8 19 0;#P connect 14 10 34 0;#P connect 19 0 27 0;#P connect 20 0 21 0;#P connect 14 10 20 0;#P connect 20 0 29 0;#P connect 14 12 22 0;#P connect 22 0 28 0;#P connect 5 0 3 0;#P connect 3 0 2 0;#P connect 6 0 5 0;#P pop;#P hidden newobj 1029 212 131 196617 p CallStateFromListOfCalls;#B color 1;#P hidden newex 1212 287 86 196617 pattrforward AT;#P hidden toggle 1212 205 15 0;#P hidden newex 1212 238 64 196617 metro 1000;#P hidden message 1212 263 41 196617 +CPAS;#P hidden message 520 308 79 196617 +CCED=0\\\\\\\,8;#P hidden message 476 445 177 196617 +CLCK=\\\\"SC\\\\"\\\\\\\,0\\\\\\\,8738;#P hidden message 850 463 38 196617 +CEER;#P hidden comment 801 367 100 196617 Echo and errors;#P hidden newex 842 606 101 196617 pvar modemReponse;#P hidden newex 38 737 101 196617 pvar modemReponse;#P hidden button 345 81 15 0;#P objectname pinReady;#P hidden newex 960 837 74 196617 pvar pinReady;#P hidden newex 631 864 74 196617 pvar pinReady;#P hidden newex 975 856 77 196617 pvar nocarrier;#P hidden newex 239 855 77 196617 pvar nocarrier;#P hidden message 953 630 22 196617 set;#P hidden button 961 927 15 0;#P hidden newex 989 876 64 196617 pvar hangup;#P hidden newex 953 651 107 196617 pvar incomingNumber;#P hidden newex 887 683 107 196617 pvar incomingNumber;#P window linecount 0;#P message 197 157 123 196617;#B color 11;#P noclick;#P objectname incomingNumber;#P window linecount 1;#P comment 190 140 100 196617 RING!;#B color 11;#P noclick;#P hidden newex 738 802 67 196617 pvar number;#P hidden newex 718 851 82 196617 pvar myNumber;#P message 37 240 112 196617 "+4917637111481";#B color 5;#P noclick;#P objectname myNumber;#P comment 18 223 100 196617 Get my number:;#P noclick;#P button 18 240 15 0;#P objectname number;#P comment 46 435 274 196617 Store settings (also stored \, when patch closed!);#B color 2;#P noclick;#P comment 37 196 100 196617 Hangup call;#P noclick;#P hidden newex 28 519 58 196617 pvar store;#P button 24 433 15 0;#P objectname store;#P button 18 194 15 0;#P objectname hangup;#P button 18 177 15 0;#P objectname answer;#P hidden button 868 684 15 0;#P hidden newex 861 734 104 196617 print "Incoming Call";#P hidden toggle 842 683 15 0;#P hidden newex 727 113 48 196617 loadbang;#P hidden message 694 141 350 196617 E0 +CMEE=1 I +CLIP=1 +CCED=1\\\\\\\,8 +EXUNSOL=\\\\"SQ\\\\"\\\\\\\,1 +CPIN?;#P user multiSlider 234 45 29 36 0. 1. 1 3961 15 1 0 2 0 0 0;#M frgb 255 43 43;#M brgb 255 255 255;#M rgb2 127 127 127;#M rgb3 0 0 0;#M rgb4 37 52 91;#M rgb5 74 105 182;#M rgb6 112 158 18;#M rgb7 149 211 110;#M rgb8 187 9 201;#M rgb9 224 62 37;#M rgb10 7 114 128;#P objectname signalDisplay;#P hidden button 522 900 15 0;#P hidden newex 144 554 86 196617 pattrforward AT;#N vpatcher 10 59 341 377;#P inlet 135 34 15 0;#P inlet 224 48 15 0;#P window setfont "Sans Serif" 9.;#P newex 50 134 64 196617 fromsymbol;#P newex 56 160 170 196617 zl union;#P message 50 112 90 196617 bang;#P newex 50 50 62 196617 prepend set;#N vpatcher 10 59 354 416;#P button 132 187 15 0;#P window setfont "Sans Serif" 9.;#P window linecount 0;#P newex 177 85 66 196617 unpack s 0 0;#P newex 180 45 94 196617 patcherargs 1 200;#P toggle 133 121 15 0;#P window linecount 1;#P newex 126 156 58 196617 metro 100;#P newex 49 189 46 196617 zl queue;#P newex 50 156 47 196617 zl iter 1;#P inlet 52 106 15 0;#P outlet 49 211 15 0;#P connect 4 0 3 0;#P connect 2 0 3 0;#P connect 3 0 0 0;#P connect 1 0 2 0;#P connect 5 0 4 0;#P connect 4 0 8 0;#P connect 7 1 5 0;#P connect 7 2 4 1;#P connect 6 0 7 0;#P pop;#P newobj 58 224 71 196617 p piper 1 200;#P inlet 50 30 15 0;#P outlet 58 246 15 0;#P connect 1 0 3 0;#P connect 3 0 4 0;#P connect 8 0 4 0;#P connect 4 0 6 0;#P connect 6 0 5 0;#P connect 5 0 2 0;#P connect 2 0 0 0;#P connect 7 0 5 1;#P pop;#P hidden newobj 615 167 96 196617 p BuildInitSequence;#P hidden message 521 328 79 196617 +CCED=1\\\\\\\,8;#P hidden button 544 827 15 0;#P hidden message 461 328 51 196617 +CCED=0;#P hidden message 192 531 47 196617 +cfun=1;#P hidden message 144 531 47 196617 +cfun=0;#P hidden newex 39 762 97 196617 route +CME +CEER:;#N vpatcher 378 148 738 696;#P window setfont "Sans Serif" 9.;#P window linecount 1;#P message 190 297 42 196617 set ---;#P window linecount 0;#P newex 192 255 48 196617 loadbang;#N comlet On PIN Lock;#P outlet 118 457 15 0;#N comlet On PIN Ready;#P outlet 86 458 15 0;#P window linecount 1;#P newex 49 140 51 196617 tosymbol;#P message 49 253 55 196617 OK! Ready;#P message 111 253 52 196617 Enter PIN;#P newex 49 174 104 196617 sel READY "SIM PIN";#P window linecount 0;#P newex 264 50 51 196617 zl slice 1;#P newex 50 409 62 196617 prepend set;#P inlet 264 30 15 0;#P inlet 50 30 15 0;#P outlet 264 457 15 0;#P outlet 50 457 15 0;#P connect 2 0 9 0;#P connect 9 0 6 0;#P connect 6 0 8 0;#P connect 7 0 4 0;#P connect 8 0 4 0;#P connect 4 0 0 0;#P connect 13 0 0 0;#P connect 6 0 10 0;#P connect 6 1 7 0;#P connect 6 1 11 0;#P connect 12 0 13 0;#P connect 3 0 5 0;#P connect 5 0 1 0;#P pop;#P hidden newobj 612 812 69 196617 p PINReponse;#P hidden number 671 841 35 9 0 0 0 3 0 0 0 221 221 221 222 222 222 0 0 0;#P message 251 407 65 196617 OK! Ready;#B color 5;#P noclick;#P objectname pinState;#P hidden number 542 920 35 9 0 0 0 3 0 0 0 221 221 221 222 222 222 0 0 0;#N vpatcher 547 44 1473 685;#P origin 78 0;#P window setfont "Sans Serif" 9.;#P window linecount 1;#P newex 5 284 129 196617 if $i1==31 then 4 else $i1;#P newex 5 311 182 196617 if $i1>=2 && $i1<=30 then 3 else $i1;#P newex 4 337 123 196617 if $i1==1 then 2 else $i1;#P newex 3 376 123 196617 if $i1==0 then 1 else $i1;#P newex 0 401 129 196617 if $i1==99 then 0 else $i1;#N comlet Signal Quality (0-4);#P outlet 1 522 15 0;#P newex 263 442 103 196617 zmap -120 -51 0. 1.;#P comment 916 399 100 196617 << fluent dB signals;#P newex 397 355 182 196617 expr -109+(($i1-1)/28.0)*(109-53);#P newex 193 329 214 196617 if $i1>=2 && $i1<=30 then out2 $i1 else $i1;#P newex 193 351 140 196617 if $i1==31 then -51 else $i1;#P newex 193 269 140 196617 if $i1==1 then -111 else $i1;#P newex 193 248 140 196617 if $i1==0 then -113 else $i1;#P newex 193 225 146 196617 if $i1==99 then -120 else $i1;#P comment 209 203 100 196617 rssi;#N comlet Signal Quality (~);#P outlet 263 522 15 0;#P comment 688 136 100 196617 ber;#P newex 637 152 187 196617 if $i1 >= 0 && $i1<=7 then $i1 else -1;#P newex 1 54 646 196617 unpack i i i;#P inlet 1 14 15 0;#N comlet Error Rate (0-7);#P outlet 637 174 15 0;#N comlet Signal Quality (dB);#P outlet 193 523 15 0;#P window linecount 0;#P comment 724 33 100 196617 calculate the RSSI and error rate of the gsm signal report;#P comment 90 160 539 196617 Command: AT+CSQ Response: +CSQ: <rssi> \, <ber> Note: <rssi> and <ber> as defined below <rssi>: 0: -113 dBm or less 1: -111 dBm 2 to 30: -109 to Ð53 dBm 31: -51dBm or greater 99: not known or not detectable <ber>: 0...7 as RXQUAL values in the table GSM 5.08 99 not known or not detectable;#P comment 17 224 100 196617 rssi;#P connect 21 0 20 0;#P connect 5 0 6 0;#P connect 20 0 19 0;#P connect 22 0 21 0;#P connect 23 0 22 0;#P connect 6 0 24 0;#P connect 24 0 23 0;#P connect 6 0 11 0;#P connect 11 0 12 0;#P connect 12 0 13 0;#P connect 13 0 15 0;#P connect 15 0 14 0;#P connect 16 0 3 0;#P connect 14 0 3 0;#P connect 16 0 18 0;#P connect 14 0 18 0;#P connect 18 0 9 0;#P connect 15 1 16 0;#P connect 6 2 7 0;#P connect 7 0 4 0;#P pop;#P hidden newobj 523 861 67 196617 p CSQDecode;#P hidden number 580 892 35 9 0 0 0 3 0 0 0 221 221 221 222 222 222 0 0 0;#P hidden toggle 364 266 15 0;#P hidden newex 364 290 64 196617 metro 2000;#N vpatcher 310 44 637 363;#P window setfont "Sans Serif" 9.;#P window linecount 1;#P newex 89 191 20 196617 t b;#P newex 86 213 61 196617 delay 1000;#P message 83 234 43 196617 +CPIN?;#P newex 90 174 55 196617 pipe 2000;#P window linecount 0;#P newex 88 155 20 196617 t b;#P window linecount 1;#N vpatcher 509 44 821 593;#P window setfont "Sans Serif" 9.;#P window linecount 1;#P newex 16 128 119 196617 match 34 nn nn nn nn 34;#P newex 16 196 51 196617 zl slice 1;#P newex 19 72 68 196617 sprintf "%s";#P newex 68 356 36 196617 <= 13;#P newex 51 299 27 196617 t l l;#P newex 31 389 29 196617 gate;#P message 168 34 32 196617 t305;#P newex 68 329 34 196617 zl len;#P message 134 34 26 196617 test;#P newex 31 415 51 196617 zl slice 4;#P window linecount 0;#P message 52 34 79 196617 symbol "0000";#P window linecount 1;#P newex 31 443 40 196617 itoa;#P newex 85 167 48 196617 loadbang;#P newex 84 211 51 196617 tosymbol;#P newex 84 235 40 196617 atoi;#P message 85 191 70 196617 1234567890;#P newex 51 273 44 196617 zl union;#P newex 15 165 51 196617 zl slice 5;#P newex 18 96 40 196617 atoi;#P inlet 18 31 15 0;#P outlet 31 472 15 0;#P window linecount 0;#P comment 154 110 100 196617 filter out decimal numbers from 0-9;#P connect 21 0 4 0;#P connect 3 0 21 0;#P connect 4 0 20 0;#P connect 19 0 3 0;#P connect 15 0 19 0;#P connect 13 0 19 0;#P connect 11 0 19 0;#P connect 2 0 19 0;#P connect 18 0 16 0;#P connect 16 0 12 0;#P connect 12 0 10 0;#P connect 10 0 1 0;#P connect 17 0 16 1;#P connect 20 1 5 0;#P connect 5 0 17 0;#P connect 17 1 14 0;#P connect 14 0 18 0;#P connect 6 0 8 0;#P connect 8 0 7 0;#P connect 9 0 6 0;#P connect 7 0 5 1;#P pop;#P newobj 65 103 76 196617 p filterNumber;#P newex 65 132 91 196617 sprintf +CPIN=%s;#P message 62 50 68 196617 symbol <pin>;#P newex 62 74 81 196617 dialog Enter PIN;#P inlet 62 30 15 0;#P outlet 65 258 15 0;#P window linecount 0;#P comment 153 46 100 196617 Get the PIN from a dialog;#P comment 171 186 100 196617 dialog timing weirdness....;#P connect 3 0 5 0;#P connect 5 0 4 0;#P connect 4 0 7 0;#P connect 7 0 6 0;#P connect 6 0 2 0;#P connect 10 0 2 0;#P connect 11 0 10 0;#P connect 12 0 11 0;#P connect 6 0 8 0;#P connect 9 0 12 0;#P connect 8 0 9 0;#P pop;#P hidden newobj 370 432 47 196617 p getPIN;#P button 194 358 25 14;#P objectname enterPIN;#P hidden button 212 830 15 0;#P toggle 18 49 38 0;#P noclick;#P objectname open;#P hidden button 345 58 17 0;#P objectname loaded;#P hidden newex 192 898 94 196617 pattrforward RING;#P button 162 130 24 11;#P noclick;#P objectname RING;#P hidden button 212 859 15 0;#P number 88 370 35 9 1 20 3 3 0 0 0 74 156 97 222 222 222 0 0 0;#P objectname ringcount;#P hidden newex 679 83 76 196617 pvar ringcount;#P hidden button 539 17 15 0;#P hidden newex 335 647 54 196617 pvar open;#P hidden newex 615 187 47 196617 pvar AT;#P hidden button 498 651 16 0;#P hidden button 432 651 15 0;#P hidden newex 542 60 311 196617 route done init ringcount calltime;#P hidden newex 542 81 62 196617 pvar loaded;#P hidden newex 543 36 320 196617 patcherargs @init @baud 9600 @ringcount 1 @calltime 30 @debug 0;#P hidden message 693 397 14 196617 I;#P hidden message 839 437 46 196617 +CMEE?;#P hidden message 824 412 52 196617 +CMEE=1;#P hidden message 805 388 33 196617 E0;#P hidden newex 805 488 47 196617 pvar AT;#P hidden message 741 461 35 196617 +cimi;#P hidden newex 708 491 47 196617 pvar AT;#P hidden message 708 414 37 196617 +cgmi;#P hidden message 719 438 42 196617 +cgmm;#P hidden message 466 425 39 196617 +cpinc;#P hidden newex 454 469 47 196617 pvar AT;#P hidden message 454 406 40 196617 +cpin?;#P hidden newex 364 370 47 196617 pvar AT;#P hidden message 407 324 46 196617 +CSQ=1;#P hidden message 364 324 34 196617 +CSQ;#P hidden newex 347 200 47 196617 pvar AT;#P hidden message 347 181 21 196617 " ";#P hidden button 347 158 15 0;#P hidden number 40 891 35 9 0 0 0 3 0 0 0 221 221 221 222 222 222 0 0 0;#P hidden button 78 889 15 0;#P hidden newex 39 845 98 196617 route ERROR: Error;#P hidden message 28 546 34 196617 store;#P hidden button 28 577 15 0;#P hidden message 28 606 24 196617 &w;#P hidden message 173 632 44 196617 +clip=0;#P hidden message 73 569 21 196617 " ";#P button 18 321 15 11;#P noclick;#P objectname nocarrier;#P hidden button 160 896 15 0;#P hidden message 164 609 44 196617 +clip=1;#P hidden message 158 585 38 196617 +clip?;#P hidden button 73 546 15 0;#P hidden newex 1304 107 94 196617 sprintf send AT%s;#P objectname AT;#P hidden newex 532 777 215 196617 route +CSQ: +CSQN: +CPIN: +CPINC: +CNUM:;#P button 18 279 15 11;#P noclick;#P objectname OK;#P hidden newex 126 786 119 196617 route OK ERROR RING;#P window setfont "Sans Serif" 18.;#P hidden newex 1301 41 182 196626 fromsymbol;#B color 6;#P objectname modemReponse;#P hidden toggle 394 651 15 0;#P window setfont "Sans Serif" 9.;#P hidden message 364 596 49 196617 listports;#P hidden newex 300 619 277 196617 comport @listports @baud 9600 @watch 1 @token "13 10";#P hidden newex 63 1188 79 196617 print COMPORT;#P window linecount 2;#P hidden comment 713 160 301 196617 init with: ask for pin state \, no echo \, extended errors \, hardware info \, unsolicited reports for signal qualitiy (wavecom/sim900);#P window linecount 1;#P comment 37 179 100 196617 Answer call;#P noclick;#P hidden comment 681 367 100 196617 Hardware info;#P window linecount 2;#P hidden comment 519 415 100 196617 remove the pin (Wavecom):;#P window linecount 1;#P comment 192 202 100 196617 Idle;#B color 11;#P noclick;#P hidden comment 369 58 100 196617 loaded;#P window linecount 36;#P comment 323 45 13 196617 \; \; \; \; \; \; \; \; \; \; \; \; \; \; \; \; \; \; \; \; \; \; \; \; \; \; \; \; \; \; \; \; \; \; \; \;;#P window linecount 2;#P hidden comment 1302 75 184 196617 Do NOT delete \, this is the cetntral modem response collector!!!;#P window linecount 1;#P comment 8 21 314 196617 Mobilette v0.1 // staalplaat soundsystem // jens@lea.io // 3 2013;#P hidden comment 367 159 86 196617 Send a simple AT;#P hidden comment 57 1005 100 196617 LOGGING............;#P user panel 190 351 131 76;#X brgb 248 0 0;#X frgb 0 0 0;#X border 1;#X rounded 0;#X shadow 0;#X done;#P hidden newex 385 1312 113 196617 pattr debugState debug;#X prestore 1 0 0;#P objectname debugState;#P hidden newex 385 1343 199 196617 pattr "Seconds until auto hangup" calltime;#X prestore 1 0 180;#P objectname "Seconds until auto hangup";#P hidden newex 524 1229 279 196617 pattrstorage modem-settings @savemode 3 @autorestore 1;#X autorestore modem-settings.xml;#X client_rect 0 0 640 240;#X storage_rect 0 0 640 240;#P objectname modem-settings;#P user panel 17 429 304 48;#X brgb 100 0 42;#X frgb 0 0 0;#X border 1;#X rounded 0;#X shadow 0;#X done;#P user panel 161 197 159 146;#X brgb 71 0 116;#X frgb 0 0 0;#X border 1;#X rounded 0;#X shadow 0;#X done;#P user panel 16 351 172 76;#X brgb 0 63 198;#X frgb 0 0 0;#X border 1;#X rounded 0;#X shadow 0;#X done;#P background;#P hidden connect 102 0 36 0;#P hidden connect 36 0 35 0;#P hidden connect 35 0 34 0;#P hidden connect 34 0 291 0;#P hidden connect 32 0 291 0;#P hidden connect 270 0 291 0;#P hidden connect 271 0 291 0;#P hidden connect 122 0 84 0;#P hidden connect 84 1 37 0;#P hidden connect 84 0 37 0;#P hidden connect 37 1 39 0;#P hidden connect 37 0 39 0;#P connect 330 0 331 0;#P connect 331 0 328 0;#P connect 326 0 319 0;#P hidden connect 253 0 249 0;#P hidden connect 249 0 18 0;#P hidden connect 27 0 32 0;#P hidden connect 37 1 38 0;#P hidden connect 37 0 38 0;#P hidden connect 250 0 249 1;#P connect 342 2 249 1;#P connect 343 1 249 1;#P connect 324 0 318 0;#P connect 190 0 342 0;#P connect 327 0 332 0;#P connect 332 0 329 0;#P hidden connect 23 0 180 0;#P hidden connect 84 2 23 0;#P connect 322 0 321 0;#P connect 325 0 321 0;#P hidden connect 85 0 91 0;#P hidden connect 86 0 91 0;#P hidden connect 33 0 292 0;#P hidden connect 29 0 292 0;#P hidden connect 28 0 292 0;#P hidden connect 37 1 30 0;#P hidden connect 37 0 30 0;#P hidden connect 23 1 30 0;#P hidden connect 30 0 177 0;#P connect 322 0 334 0;#P hidden connect 23 2 70 0;#P hidden connect 68 0 70 0;#P connect 175 0 343 0;#P connect 345 0 175 0;#P hidden connect 23 2 73 0;#P hidden connect 23 3 183 0;#P hidden connect 183 0 117 0;#P hidden connect 142 0 143 0;#P connect 323 0 320 0;#P connect 344 0 239 0;#P hidden connect 19 0 189 0;#P hidden connect 20 0 19 0;#P hidden connect 239 0 19 0;#P hidden connect 183 0 182 0;#P hidden connect 19 1 64 0;#P hidden connect 40 0 41 0;#P hidden connect 41 0 42 0;#P hidden connect 77 0 76 0;#P hidden connect 307 0 43 0;#P hidden connect 76 0 43 0;#P hidden connect 236 0 45 0;#P hidden connect 43 0 45 0;#P hidden connect 44 0 45 0;#P hidden connect 87 0 45 0;#P hidden connect 89 0 45 0;#P hidden connect 127 0 45 0;#P hidden connect 225 0 45 0;#P hidden connect 259 0 20 0;#P hidden connect 245 0 75 0;#P hidden fasten 280 0 283 0 390 1298 376 1298 376 1214 390 1214;#P hidden fasten 283 1 287 0 457 1241 390 1241;#P hidden connect 287 0 280 0;#P hidden connect 19 1 21 0;#P hidden connect 19 2 61 0;#P hidden connect 312 0 46 0;#P hidden connect 48 0 47 0;#P hidden connect 46 0 47 0;#P hidden connect 75 0 47 0;#P hidden connect 126 0 47 0;#P hidden connect 79 0 301 0;#P hidden connect 309 0 301 0;#P hidden connect 303 0 304 0;#P connect 304 0 300 0;#P connect 234 0 333 0;#P connect 333 0 236 0;#P hidden connect 19 3 62 0;#P hidden fasten 19 4 185 0 569 645 580 645 580 558 506 558;#P hidden connect 185 1 293 0;#P hidden connect 79 0 92 0;#P hidden connect 25 0 79 0;#P hidden connect 25 1 79 0;#P hidden connect 278 0 3 0;#P hidden connect 279 0 3 0;#P hidden connect 277 0 3 0;#P hidden connect 285 0 3 0;#P hidden connect 286 0 3 0;#P hidden connect 3 0 281 0;#P hidden connect 281 0 282 0;#P hidden connect 238 0 25 0;#P hidden connect 58 1 60 0;#P hidden connect 60 0 59 0;#P hidden connect 79 1 80 0;#P hidden connect 65 0 58 0;#P hidden connect 25 0 88 0;#P hidden connect 282 0 279 0;#P hidden connect 79 2 191 0;#P hidden connect 293 0 19 1;#P hidden connect 79 3 78 0;#P hidden connect 276 0 278 0;#P hidden connect 290 0 278 0;#P hidden connect 25 2 83 0;#P hidden connect 83 0 247 0;#P hidden connect 60 1 90 0;#P hidden connect 90 0 63 0;#P hidden connect 83 1 119 0;#P connect 336 0 90 1;#P hidden connect 273 0 144 0;#P hidden connect 145 0 144 0;#P hidden connect 144 0 147 0;#P hidden connect 25 3 83 1;#P hidden connect 83 3 82 0;#P hidden connect 146 0 273 0;#P hidden connect 60 2 66 0;#P hidden connect 95 0 94 0;#P hidden connect 229 0 230 0;#P hidden connect 230 0 231 0;#P hidden connect 94 0 90 2;#P hidden connect 50 0 51 0;#P hidden connect 49 0 51 0;#P hidden connect 52 0 51 0;#P hidden connect 57 0 51 0;#P hidden connect 25 4 248 0;#P hidden connect 248 0 108 0;#P hidden connect 260 0 262 0;#P hidden connect 262 0 261 0;#P hidden connect 60 3 207 0;#P hidden connect 109 0 248 1;#P hidden connect 54 0 53 0;#P hidden connect 56 0 53 0;#P hidden connect 55 0 53 0;#P hidden connect 125 0 53 0;#P connect 338 0 314 0;#P connect 338 0 335 0;#P connect 335 0 337 0;#P hidden connect 123 0 204 0;#P hidden connect 204 0 96 0;#P hidden connect 60 4 251 0;#P hidden connect 251 0 252 0;#P hidden connect 204 1 228 0;#P hidden connect 228 0 97 0;#P hidden connect 204 1 98 0;#P hidden connect 204 2 112 0;#P hidden connect 226 0 214 0;#P hidden connect 214 0 212 0;#P hidden connect 219 0 116 0;#P hidden connect 116 0 113 0;#P hidden connect 115 0 217 0;#P hidden connect 120 0 115 0;#P hidden connect 118 0 115 0;#P hidden connect 114 0 115 0;#P hidden connect 200 0 115 0;#P hidden connect 201 0 115 0;#P hidden connect 202 0 115 0;#P hidden connect 213 0 214 1;#P hidden connect 220 0 214 2;#P hidden connect 214 1 206 0;#P hidden connect 227 0 222 0;#P hidden connect 222 0 221 0;#P hidden connect 221 0 223 0;#P connect 315 0 346 0;#P hidden connect 267 0 268 0;#P hidden connect 269 0 264 0;#P hidden connect 268 0 264 0;#P connect 346 2 347 0;#P hidden connect 266 0 269 0;#P connect 346 3 317 0;#P connect 317 0 316 0;#P hidden connect 187 0 130 0;#P hidden connect 130 0 129 0;#P hidden connect 129 0 128 0;#P hidden connect 128 0 131 0;#P hidden connect 188 0 164 0;#P hidden connect 164 0 170 0;#P hidden connect 197 0 170 0;#P hidden connect 198 0 170 0;#P hidden connect 199 0 170 0;#P hidden connect 170 0 159 0;#P hidden connect 159 0 160 0;#P hidden connect 170 0 150 0;#P hidden connect 159 0 171 0;#P hidden connect 159 1 162 0;#P hidden connect 150 0 156 0;#P hidden connect 156 0 155 0;#P hidden connect 159 1 172 0;#P hidden connect 195 0 129 1;#P hidden connect 196 0 129 1;#P hidden connect 150 0 158 0;#P hidden connect 158 0 157 0;#P hidden connect 193 0 195 0;#P hidden connect 156 0 168 0;#P hidden connect 150 0 152 0;#P hidden connect 152 0 151 0;#P hidden connect 159 2 163 0;#P hidden connect 150 0 153 0;#P hidden connect 153 0 154 0;#P hidden connect 158 0 167 0;#P hidden connect 159 2 169 0;#P hidden connect 153 0 166 0;#P hidden connect 152 0 165 0;#P hidden connect 194 0 196 0;#P pop;