max v2;#N vpatcher 21 44 372 548;#P origin 103 -34;#P window setfont "Sans Serif" 9.;#P hidden newex 466 796 66 196617 pvar getCSQ;#N vpatcher 10 257 621 875;#P window setfont "Sans Serif" 9.;#P newex 183 342 48 196617 loadbang;#P window linecount 1;#P message 499 301 61 196617 set Unkown;#P message 364 302 119 196617 set Connected (roaming);#P message 258 350 97 196617 set Cannot register;#P message 196 409 80 196617 set Searching...;#P window linecount 0;#P newex 89 76 27 196617 t l l;#P window linecount 1;#P newex 80 141 44 196617 zl nth 2;#P newex 107 107 34 196617 zl len;#P newex 96 166 447 196617 sel 0 1 2 3 4 5;#P message 132 444 72 196617 set Connected;#P window linecount 0;#P message 92 481 81 196617 set No Operator;#P outlet 362 566 15 0;#P inlet 107 36 15 0;#P connect 7 0 6 0;#P connect 0 0 7 0;#P connect 4 0 2 0;#P connect 6 0 4 0;#P connect 7 1 5 0;#P connect 5 0 6 1;#P connect 4 1 3 0;#P connect 12 0 8 0;#P connect 4 2 8 0;#P connect 4 3 9 0;#P connect 2 0 1 0;#P connect 3 0 1 0;#P connect 8 0 1 0;#P connect 9 0 1 0;#P connect 10 0 1 0;#P connect 11 0 1 0;#P connect 4 5 10 0;#P connect 4 4 11 0;#P connect 4 6 11 0;#P pop;#P hidden newobj 396 788 52 196617 p reg_gui;#P hidden newex 394 810 49 196617 pvar reg;#P message 208 74 111 196617 Connected (roaming);#B color 15;#P noclick;#P objectname reg;#P hidden message 465 819 45 196617 +CREG?;#P hidden message 462 843 51 196617 +CREG=?;#P hidden newex 467 892 47 196617 pvar AT;#P hidden message 482 861 51 196617 +CREG=1;#P hidden newex 398 736 101 196617 pvar modemReponse;#P hidden newex 399 759 70 196617 route +CREG:;#P hidden newex 363 245 50 196617 pvar poll;#P hidden message 534 293 85 196617 +CCED=0\\\\\\\,10;#P hidden newex 1036 962 55 196617 delay 500;#P hidden newex 956 961 54 196617 onebang 1;#P hidden newex 959 992 50 196617 deferlow;#P hidden toggle 642 222 15 0;#P hidden newex 641 244 50 196617 pvar poll;#P hidden message 537 159 14 196617 1;#P hidden message 605 133 14 196617 0;#P hidden button 577 111 15 0;#P hidden newex 539 137 61 196617 delay 2000;#P hidden newex 543 186 50 196617 pvar poll;#P hidden message 696 136 293 196617 E1 +CMEE=1 I +CLIP=1 +CLTS=1 +CCLK? +CREG=1 S1 +CPIN?;#P hidden newex 384 587 94 196617 sprintf send AT%s;#N vpatcher 10 59 354 416;#P button 162 33 15 0;#P window setfont "Sans Serif" 9.;#P number 242 117 35 9 0 0 0 3 0 0 0 221 221 221 222 222 222 0 0 0;#P button 132 187 15 0;#P window linecount 0;#P newex 177 85 75 196617 unpack s 0 0 0;#P newex 180 45 103 196617 patcherargs 1 200 1;#P toggle 133 121 15 0;#P window linecount 1;#P newex 126 156 58 196617 metro 100;#P newex 49 189 46 196617 zl queue;#P inlet 52 106 15 0;#P outlet 49 211 15 0;#P connect 3 0 2 0;#P connect 1 0 2 0;#P connect 2 0 0 0;#P connect 4 0 3 0;#P connect 3 0 7 0;#P connect 6 1 4 0;#P connect 6 2 3 1;#P connect 5 0 6 0;#P connect 9 0 5 0;#P connect 6 3 8 0;#P pop;#P hidden newobj 384 563 71 196617 p piper 1 100;#P hidden newex 385 543 47 196617 zl iter 1;#P objectname AT;#P hidden newex 707 226 47 196617 pvar AT;#P hidden message 707 192 278 196617 E1 +CMEE=1 I +CLIP=1 +CLTS=1 +CCLK? +CREG=1 +CPIN?;#P hidden newex 213 1098 132 196617 prepend "Send to Modem: ";#P hidden newex 87 1123 144 196617 prepend "Modem responded: ";#P hidden message 404 311 46 196617 +CSQ=?;#P hidden message 765 392 19 196617 E1;#P hidden message 374 135 33 196617 clear;#P hidden message 713 1271 230 196617 read /Staalplaat/Mobilette/modem-settings.xml;#P hidden newex 717 1248 48 196617 loadbang;#P objectname dmx[1];#P hidden newex 1093 160 58 196617 pvar store;#P hidden newex 1066 72 53 196617 t b b b b;#P hidden newex 205 1040 47 196617 pvar AT;#P comment 37 137 100 196617 Soft Reset;#P noclick;#P comment 37 122 100 196617 Re-Init Phone;#P noclick;#P button 18 120 15 0;#P objectname Init;#P hidden newex 812 244 89 196617 pvar onConnected;#P hidden newex 838 298 49 196617 pvar Init;#P hidden newex 636 110 49 196617 pvar Init;#P hidden newex 832 272 61 196617 delay 1000;#N comlet Hung Up;#P hidden outlet 181 1518 15 0;#P hidden newex 462 288 61 196617 delay 3333;#P hidden newex 122 1269 20 196617 t b;#P hidden newex 46 1268 20 196617 t b;#P hidden inlet 46 1243 15 0;#P hidden newex 122 1293 64 196617 pvar hangup;#P hidden newex 46 1293 67 196617 pvar answer;#P hidden inlet 122 1240 15 0;#P hidden newex 48 1347 100 196617 pvar onIncomingCall;#P hidden newex 127 1400 109 196617 pvar onRingTerminate;#P hidden newex 81 1376 74 196617 pvar onPickUp;#P hidden newex 245 1428 58 196617 pvar reset;#P hidden newex 138 1427 90 196617 pvar onDidHangUp;#N comlet Canceled Call;#P hidden outlet 127 1518 15 0;#P hidden outlet 245 1518 15 0;#N comlet Incoming Call;#P hidden outlet 48 1518 15 0;#N comlet Pick Up;#P hidden outlet 81 1518 15 0;#P hidden newex 1109 113 40 196617 uzi 10;#P hidden newex 1109 134 64 196617 pvar hangup;#P hidden newex 1068 39 53 196617 closebang;#P hidden newex 817 319 106 196617 print "Comport open";#P button 195 412 15 0;#P objectname queryPIN;#P hidden newex 454 389 75 196617 pvar queryPIN;#P hidden comment 17 38 78 196617 Dummy inlet;#P hidden inlet 1 34 13 0;#P hidden newex 550 843 60 196617 loadmess 0;#P comment 234 103 74 196617 Refresh Signal;#B color 11;#P noclick;#P hidden newex 384 271 66 196617 pvar getCSQ;#P window setfont "Sans Serif" 24.;#P comment 212 39 29 196632 ´;#P button 305 102 15 0;#P objectname getCSQ;#P window setfont "Sans Serif" 9.;#N vpatcher 30 89 296 335;#P window setfont "Sans Serif" 9.;#P window linecount 0;#P hidden message 130 81 43 196617 1 2 3 4;#P hidden message 87 120 43 196617 1 2 0 0;#P hidden message 60 137 43 196617 1 0 0 0;#P hidden message 40 162 43 196617 0 0 0 0;#P hidden newex 50 50 79 196617 sel 0 1 2 3 4;#P inlet 50 30 15 0;#P outlet 49 199 15 0;#P comment 109 27 100 196617 Format CSQ Display;#P window linecount 1;#P hidden message 104 100 43 196617 1 2 3 0;#P connect 4 0 5 0;#P connect 5 0 2 0;#P connect 6 0 2 0;#P connect 7 0 2 0;#P connect 8 0 2 0;#P connect 0 0 2 0;#P connect 3 0 4 0;#P connect 4 1 6 0;#P connect 4 2 7 0;#P connect 4 3 0 0;#P connect 4 4 8 0;#P pop;#P hidden newobj 550 965 88 196617 p CSQSteps2Bars;#P hidden newex 550 942 52 196617 pvar CSQ;#P user multiSlider 264 37 55 36 0. 4. 4 2921 15 0 1 2 4 0 0;#M frgb 91 91 91;#M brgb 255 255 255;#M rgb2 127 127 127;#M rgb3 0 0 0;#M rgb4 37 52 91;#M rgb5 74 105 182;#M rgb6 112 158 18;#M rgb7 149 211 110;#M rgb8 187 9 201;#M rgb9 224 62 37;#M rgb10 7 114 128;#P noclick;#P objectname CSQDisplay;#P hidden number 550 906 35 9 0 0 0 3 0 0 0 221 221 221 222 222 222 0 0 0;#P objectname CSQ;#P hidden newex 550 993 85 196617 pvar CSQDisplay;#P comment 162 164 33 196617 From:;#B color 11;#P noclick;#P window setfont "Sans Serif" 12.;#P comment 19 357 151 196620 Auto call settings;#B color 6;#P noclick;#P comment 212 129 100 196620 Call Events;#P noclick;#P window setfont "Sans Serif" 9.;#P comment 18 269 100 196617 General Events:;#P noclick;#P comment 18 167 100 196617 Call control:;#P noclick;#P window linecount 36;#P comment 3 50 13 196617 \; \; \; \; \; \; \; \; \; \; \; \; \; \; \; \; \; \; \; \; \; \; \; \; \; \; \; \; \; \; \; \; \; \; \; \;;#P window linecount 1;#P hidden newex 507 599 50 196617 deferlow;#P hidden newex 155 661 47 196617 pvar AT;#P hidden newex 28 658 47 196617 pvar AT;#P hidden newex 765 1159 58 196617 pvar store;#P hidden comment 576 1294 100 196617 Auto read preset 1;#P hidden newex 385 1373 288 196617 pattr "Auto answer after how may rings? (min. 1)" ringcount;#X prestore 1 0 1;#P objectname "Auto answer after how may rings? (min. 1)";#P hidden newex 385 1252 73 196617 pattr comport;#X prestore 1 0 usbserial;#P objectname comport;#P hidden message 524 1200 53 196617 readagain;#P hidden message 580 1202 33 196617 clear;#P hidden comment 385 1203 100 196617 Store the comport;#P hidden newex 385 1223 77 196617 pvar portlist 2;#P hidden button 524 1292 15 0;#P hidden newex 524 1266 57 196617 route read;#P objectname deviceaddress[5];#P hidden newex 385 1279 80 196617 prepend symbol;#P objectname deviceaddress[4];#P hidden message 548 1292 14 196617 1;#P hidden message 702 1194 275 196617 store 1 \, write /Staalplaat/Mobilette/modem-settings.xml;#P hidden message 617 1205 78 196617 storagewindow;#P hidden newex 707 1160 53 196617 closebang;#P objectname dmx[2];#P hidden comment 653 1572 349 196617 ---------------------------------------------------------------;#P window setfont "Sans Serif" 14.;#P hidden comment 381 1088 173 196622 Handle Settings;#P window setfont "Sans Serif" 9.;#P hidden newex 672 638 61 196617 delay 1000;#P hidden comment 621 739 199 196617 Handle Signal \, PIN and own number;#P hidden message 103 612 21 196617 &F;#P hidden message 65 612 22 196617 &V;#P hidden message 1095 438 15 196617 A;#P hidden message 1078 438 14 196617 H;#P hidden newex 1078 392 64 196617 pvar hangup;#P hidden newex 1095 417 67 196617 pvar answer;#P hidden comment 1077 373 100 196617 Call Control;#P hidden newex 1078 469 47 196617 pvar AT;#P comment 195 391 122 196617 This might brick your SIM;#B color 5;#P noclick;#N vpatcher 20 74 243 234;#P window setfont "Sans Serif" 9.;#P newex 50 72 20 196617 t b;#P message 51 92 42 196617 set ---;#P newex 51 50 109 196617 match send AT+CPIN?;#P inlet 51 30 15 0;#P outlet 51 112 15 0;#P connect 2 0 4 0;#P connect 1 0 2 0;#P connect 4 0 3 0;#P connect 3 0 0 0;#P pop;#P hidden newobj 815 910 88 196617 p detectPINQuery;#P hidden newex 815 937 71 196617 pvar pinState;#P hidden newex 815 889 47 196617 pvar AT;#P hidden newex 300 539 73 196617 pvar listports;#P comment 35 80 100 196617 Refresh port list;#P noclick;#P button 18 79 15 0;#P objectname listports;#P comment 214 413 35 196617 State:;#B color 5;#P noclick;#P comment 44 461 185 196617 print debug information to max window;#B color 2;#P toggle 24 460 15 0;#P objectname debug;#P hidden newex 27 1030 59 196617 pvar debug;#P hidden newex 843 110 59 196617 pvar debug;#P hidden newex 843 87 62 196617 route debug;#P hidden newex 55 1052 51 196617 tosymbol;#P objectname debugOut;#P hidden newex 63 1169 29 196617 gate;#N vpatcher 20 74 246 329;#P window setfont "Sans Serif" 9.;#P newex 101 99 48 196617 loadbang;#P message 63 125 22 196617 set;#P newex 50 75 62 196617 prepend set;#P newex 50 50 44 196617 zl nth 3;#P inlet 63 105 15 0;#P inlet 50 30 15 0;#P outlet 50 156 15 0;#P connect 1 0 3 0;#P connect 3 0 4 0;#P connect 5 0 0 0;#P connect 4 0 0 0;#P connect 2 0 5 0;#P connect 6 0 5 0;#P pop;#P hidden newobj 807 829 92 196617 p numberResponse;#P hidden newex 701 928 71 196617 pvar pinState;#P window linecount 2;#P comment 231 364 81 196617 Enter the PIN !!! CAUTION !!!;#B color 5;#P noclick;#P window linecount 1;#P hidden newex 370 411 73 196617 pvar enterPIN;#P hidden comment 659 570 148 196617 Ask for your own phone number;#P hidden comment 1297 372 148 196617 << simulate states;#P window linecount 2;#P hidden comment 1322 307 148 196617 Handle call detection and state change via polling;#P hidden comment 155 742 148 196617 Handle general messages like OK ERROR RING and NO CARRIER;#P hidden comment 942 787 148 196617 Collect all neccessary messages for a soft reset;#P window linecount 1;#P hidden newex 620 759 101 196617 pvar modemReponse;#P window linecount 2;#P hidden comment 145 505 86 196617 Switch the device ON/OFF;#P window linecount 1;#P hidden message 462 311 34 196617 +CSQ;#P hidden comment 366 87 100 196617 pinReady;#P hidden newex 462 268 74 196617 pvar pinReady;#P hidden comment 365 44 100 196617 onConnected;#P hidden button 347 43 15 0;#P objectname onConnected;#P hidden newex 698 316 89 196617 pvar onConnected;#P hidden newex 698 290 44 196617 togedge;#P hidden newex 698 265 54 196617 pvar open;#N vpatcher 20 74 314 299;#P window setfont "Sans Serif" 9.;#P window linecount 1;#P newex 50 50 30 196617 t s b;#P newex 51 139 37 196617 zl rev;#P newex 52 112 38 196617 zl join;#N vpatcher 10 59 262 308;#P window setfont "Sans Serif" 9.;#P window linecount 1;#P newex 60 177 51 196617 tosymbol;#P window linecount 0;#P newex 118 29 48 196617 loadbang;#P inlet 60 23 15 0;#P window linecount 1;#P message 118 53 62 196617 separator -;#P newex 51 99 37 196617 zl rev;#P newex 54 123 51 196617 tosymbol;#P message 128 77 59 196617 separator :;#P newex 123 108 51 196617 tosymbol;#P newex 50 144 38 196617 zl join;#P message 50 50 53 196617 time \, date;#P newex 50 77 40 196617 date;#P outlet 50 199 15 0;#P window linecount 0;#P comment 70 219 100 196617 Generate time stamp;#P connect 10 0 3 0;#P connect 3 0 2 0;#P connect 7 0 4 0;#P connect 12 0 1 0;#P connect 2 0 8 0;#P connect 8 0 7 0;#P connect 9 0 7 0;#P connect 4 0 12 0;#P connect 5 0 4 1;#P connect 11 0 9 0;#P connect 2 1 5 0;#P connect 6 0 5 0;#P connect 11 0 6 0;#P pop;#P newobj 75 89 65 196617 p timestamp;#P inlet 50 30 15 0;#P outlet 51 161 15 0;#P window linecount 0;#P comment 88 34 100 196617 format logging of incoming calls;#P connect 2 0 6 0;#P connect 4 0 5 0;#P connect 5 0 1 0;#P connect 6 0 4 0;#P connect 6 1 3 0;#P connect 3 0 4 1;#P pop;#P hidden newobj 859 717 49 196617 p format;#P hidden newex 1024 258 58 196617 pvar reset;#P hidden newex 946 397 74 196617 pvar onPickUp;#P hidden message 465 358 136 196617 +EXUNSOL=\\\\"SQ\\\\"\\\\\\\,1;#P hidden comment 1024 240 138 196617 Auto answer after X rings;#P hidden newex 1024 334 47 196617 pvar AT;#P hidden newex 1024 285 76 196617 pvar ringcount;#P hidden newex 1024 309 74 196617 sprintf S0=%i;#P hidden newex 990 444 58 196617 pvar reset;#P hidden newex 953 611 58 196617 pvar reset;#P button 18 136 15 0;#P objectname reset;#P hidden newex 956 1027 58 196617 pvar reset;#P comment 125 376 37 196617 Rings;#B color 6;#P noclick;#P comment 18 374 67 196617 Answer after;#B color 6;#P noclick;#P window linecount 3;#N vpatcher 116 308 429 746;#P window setfont "Sans Serif" 9.;#P window linecount 0;#P newex 164 196 27 196617 t i i;#P newex 226 108 30 196617 t b b;#P newex 225 143 27 196617 i;#P window linecount 1;#P message 188 144 14 196617 0;#P window linecount 0;#P newex 188 225 47 196617 gate 1 0;#P newex 76 275 106 196617 f;#P newex 76 299 29 196617 t b f;#P button 235 65 15 0;#P message 255 143 14 196617 1;#P inlet 219 35 15 0;#P button 139 326 15 0;#P window linecount 1;#P newex 74 165 107 196617 sprintf set 1.\\\, 0. %i;#P newex 74 139 44 196617 * 1000;#P newex 61 327 35 196617 * 30.;#P button 22 53 20 0;#P message 60 197 82 196617 1. \, 0. 90000;#P newex 60 227 65 196617 line 0. 1000;#P inlet 102 25 15 0;#P inlet 60 29 15 0;#P outlet 119 373 15 0;#P outlet 61 360 15 0;#P connect 2 0 5 0;#P connect 6 0 5 0;#P connect 9 0 5 0;#P connect 5 0 4 0;#P connect 20 0 4 0;#P connect 4 0 7 0;#P connect 14 0 7 0;#P connect 7 0 0 0;#P connect 3 0 8 0;#P connect 8 0 9 0;#P connect 4 1 15 0;#P connect 16 0 15 0;#P connect 15 0 14 0;#P connect 14 1 7 1;#P connect 4 1 1 0;#P connect 4 1 10 0;#P connect 12 0 20 0;#P connect 3 0 15 1;#P connect 2 0 17 0;#P connect 17 0 16 0;#P connect 20 1 16 0;#P connect 19 0 18 0;#P connect 3 0 18 0;#P connect 18 0 16 1;#P connect 11 0 19 0;#P connect 11 0 13 0;#P connect 19 1 12 0;#P pop;#P hidden newobj 946 467 55 196617 p CallTimeController;#P window linecount 1;#P hidden newex 968 421 70 196617 pvar calltime;#P hidden newex 946 536 70 196617 pvar timeleft;#P comment 84 415 100 196617 Seconds until hangup;#B color 5;#P noclick;#P number 17 413 61 9 0 0 0 3 0 0 0 255 227 23 222 222 222 0 0 0;#P noclick;#P objectname timeleft;#P comment 84 394 100 196617 Secs. max. Call time;#B color 6;#P noclick;#P number 17 392 61 9 0 0 5 3 0 0 0 74 156 97 222 222 222 0 0 0;#P objectname calltime;#P hidden newex 765 87 70 196617 pvar calltime;#P hidden newex 991 514 64 196617 pvar hangup;#P hidden comment 840 583 148 196617 Get CLIP (State and Response);#N vpatcher 10 59 289 329;#P window setfont "Sans Serif" 9.;#P newex 109 160 62 196617 prepend set;#P newex 86 134 64 196617 fromsymbol;#P message 68 134 14 196617 1;#P newex 50 74 51 196617 zl slice 1;#P message 50 134 14 196617 0;#P newex 50 102 46 196617 sel 0 1;#P newex 50 50 67 196617 route +CLIP:;#P inlet 50 30 15 0;#P outlet 86 156 15 0;#P outlet 50 154 15 0;#P outlet 109 182 15 0;#P connect 3 0 4 0;#P connect 4 0 7 0;#P connect 7 0 5 0;#P connect 5 0 6 0;#P connect 8 0 1 0;#P connect 6 0 1 0;#P connect 5 1 8 0;#P connect 5 2 9 0;#P connect 9 0 2 0;#P connect 9 0 10 0;#P connect 10 0 0 0;#P pop;#P hidden newobj 842 640 53 196617 p GetCLIP;#P hidden comment 948 375 100 196617 Call Timing;#P hidden newex 1003 901 90 196617 pvar onDidHangUp;#P hidden newex 1015 920 109 196617 pvar onRingTerminate;#P hidden message 1276 372 14 196617 4;#P hidden message 1249 371 14 196617 3;#P hidden message 1227 371 14 196617 0;#P hidden message 1339 206 26 196617 500;#P hidden message 1276 207 34 196617 1000;#P hidden newex 1343 180 76 196617 pvar onRinging;#P hidden newex 1276 180 60 196617 pvar onIdle;#P hidden comment 439 544 100 196617 << pvar AT;#B color 11;#P noclick;#P hidden newex 653 965 93 196617 pvar signalDisplay;#P hidden newex 86 1075 101 196617 pvar modemReponse;#P hidden newex 299 675 101 196617 pvar modemReponse;#P hidden newex 1212 329 101 196617 pvar modemReponse;#P hidden newex 1212 181 60 196617 loadmess 1;#P user umenu 18 99 157 196647 1 64 115 1;#X add "--- Choose a serial port ---";#X add Bluetooth-Incoming-Port;#X add Bluetooth-Modem;#X add ifohn-WirelessiAP;#P objectname portlist;#P hidden newex 501 572 77 196617 pvar portlist 2;#P comment 40 55 100 196617 Device connected;#P noclick;#P hidden newex 239 837 94 196617 match NO CARRIER;#P hidden button 324 860 15 0;#P comment 37 306 100 196617 ERROR;#B color 11;#P noclick;#P hidden newex 125 819 46 196617 pvar OK;#P comment 37 284 100 196617 OK;#B color 11;#P noclick;#P button 18 305 15 11;#P noclick;#P objectname ERROR;#P hidden newex 160 934 63 196617 pvar ERROR;#P comment 37 327 100 196617 NOCARRIER;#B color 11;#P noclick;#P hidden newex 207 1066 57 196617 route send;#P button 173 241 15 11;#P noclick;#P objectname onActiveCall;#P comment 192 243 100 196617 Active Call;#B color 11;#P noclick;#P hidden newex 1263 728 76 196617 pvar onRinging;#P hidden newex 1230 753 60 196617 pvar onIdle;#P hidden newex 1212 391 27 196617 i;#P hidden newex 1297 703 91 196617 pvar onActiveCall;#P hidden newex 1277 647 100 196617 pvar onIncomingCall;#P hidden newex 1294 589 109 196617 pvar onRingTerminate;#P hidden newex 1306 470 90 196617 pvar onDidHangUp;#P hidden newex 1319 522 74 196617 pvar onPickUp;#P hidden newex 1212 351 72 196617 route +CPAS:;#P hidden button 1278 703 15 0;#P hidden button 1245 728 15 0;#P hidden button 3077 353 15 0;#P hidden button 1212 754 15 0;#P hidden newex 1212 673 111 196617 sel 0 3 4;#P hidden newex 1272 556 55 196617 match 3 0;#P hidden button 1272 589 15 0;#P hidden newex 1255 618 55 196617 match 0 3;#P hidden button 1255 647 15 0;#P hidden button 1283 470 15 0;#P hidden newex 1283 445 55 196617 match 4 0;#P hidden newex 1278 497 55 196617 match 3 4;#P hidden button 1278 522 15 0;#P hidden newex 1230 417 131 196617 change;#P button 173 308 15 11;#P noclick;#P objectname onPickUp;#P comment 192 308 100 196617 Picked up;#B color 11;#P noclick;#P hidden newex 658 685 86 196617 pattrforward AT;#P hidden newex 672 614 58 196617 pvar reset;#P hidden newex 658 589 67 196617 pvar number;#P hidden message 658 661 42 196617 +CNUM;#P button 192 325 15 11;#P noclick;#P objectname onDidHangUp;#P comment 214 325 100 196617 Hung up;#B color 11;#P noclick;#P button 192 288 15 11;#P noclick;#P objectname onRingTerminate;#P comment 214 288 100 196617 Did hang up early;#B color 11;#P noclick;#P button 173 224 15 11;#P noclick;#P objectname onRinging;#P comment 192 224 100 196617 Ringing;#B color 11;#P noclick;#P button 173 270 15 11;#P noclick;#P objectname onIncomingCall;#P comment 192 270 100 196617 Incoming Call;#B color 11;#P noclick;#P button 173 207 15 11;#P noclick;#P objectname onIdle;#N vpatcher 10 59 610 459;#P origin 0 4;#P window setfont "Sans Serif" 9.;#P window linecount 1;#P newex 294 290 171 196617 sprintf set "Incoming call from %s";#P message 232 324 195 196617 Incoming call from "+4917624053500";#P newex 227 286 32 196617 sel 4;#P comment 272 161 100 196617 << some call info;#P button 252 160 15 0;#P button 356 250 15 0;#P button 385 250 15 0;#P button 298 250 15 0;#P button 217 250 15 0;#P button 268 250 15 0;#P button 242 250 15 0;#P button 194 250 15 0;#P number 380 203 35 9 0 0 0 3 0 0 0 221 221 221 222 222 222 0 0 0;#P message 342 270 110 196617 "+4917624053500";#P newex 347 221 62 196617 prepend set;#P number 292 228 35 9 0 0 0 3 0 0 0 221 221 221 222 222 222 0 0 0;#P number 239 224 35 9 0 0 0 3 0 0 0 221 221 221 222 222 222 0 0 0;#P number 272 208 35 9 0 0 0 3 0 0 0 221 221 221 222 222 222 0 0 0;#P number 221 205 35 9 0 0 0 3 0 0 0 221 221 221 222 222 222 0 0 0;#P number 194 223 35 9 0 0 0 3 0 0 0 221 221 221 222 222 222 0 0 0;#P newex 195 181 221 196617 unpack i 0 i 0 i 0 i 0 i 0 s 0 i;#P newex 189 140 34 196617 zl len;#P message 50 46 236 196617 +CLCC: 1 \, 1 \, 4 \, 0 \, 0 \, "+4917624053500" \, 145;#P newex 169 393 32 196617 print;#P message 164 83 206 196617 +CLCC: 1 1 4 0 0 "+4917624053500" 145;#P newex 164 112 70 196617 route +CLCC:;#P comment 298 49 258 196617 +CLCC: 1 \, 1 \, 4 \, 0 \, 0 \, "+4917624053500" \, 145;#P newex 245 120 101 196617 pvar modemReponse;#P toggle 434 87 15 0;#P newex 434 120 64 196617 metro 1000;#P comment 291 102 100 196617 Call detection;#P message 432 145 39 196617 +CLCC;#P newex 432 169 86 196617 pattrforward AT;#P message 50 66 238 196617 +CLCC: 1 \, 1 \, 4 \, 0 \, 0 \, "+4917624053500" \, 145;#P window setfont "Sans Serif" 12.;#P window linecount 0;#P comment 13 22 331 196620 Attempt to capture call state from list of calls;#P fasten 1 0 9 0 175 111;#P connect 7 0 9 0;#P connect 10 0 9 0;#P connect 9 0 11 0;#P connect 33 0 11 0;#P connect 13 0 11 0;#P connect 9 0 13 0;#P connect 14 0 15 0;#P connect 15 0 23 0;#P connect 9 0 14 0;#P connect 16 0 26 0;#P connect 14 2 16 0;#P connect 18 0 32 0;#P connect 34 0 33 0;#P connect 32 0 33 0;#P connect 14 4 18 0;#P connect 18 0 24 0;#P connect 9 0 30 0;#P connect 17 0 25 0;#P connect 14 6 17 0;#P connect 14 8 19 0;#P connect 14 10 34 0;#P connect 19 0 27 0;#P connect 20 0 21 0;#P connect 14 10 20 0;#P connect 20 0 29 0;#P connect 14 12 22 0;#P connect 22 0 28 0;#P connect 5 0 3 0;#P connect 3 0 2 0;#P connect 6 0 5 0;#P pop;#P hidden newobj 1029 217 131 196617 p CallStateFromListOfCalls;#B color 1;#P hidden newex 1212 292 86 196617 pattrforward AT;#P hidden toggle 1212 210 15 0;#P objectname poll;#P hidden newex 1212 243 64 196617 metro 1000;#P hidden message 1212 268 41 196617 +CPAS;#P hidden message 520 313 79 196617 +CCED=0\\\\\\\,8;#P hidden message 476 450 177 196617 +CLCK=\\\\"SC\\\\"\\\\\\\,0\\\\\\\,8738;#P hidden message 850 468 38 196617 +CEER;#P hidden comment 801 372 100 196617 Echo and errors;#P hidden newex 842 611 101 196617 pvar modemReponse;#P hidden newex 38 742 101 196617 pvar modemReponse;#P hidden button 345 86 15 0;#P objectname pinReady;#P hidden newex 960 842 74 196617 pvar pinReady;#P hidden newex 720 869 74 196617 pvar pinReady;#P hidden newex 975 861 77 196617 pvar nocarrier;#P hidden newex 239 860 77 196617 pvar nocarrier;#P hidden message 953 635 22 196617 set;#P hidden button 961 932 15 0;#P hidden newex 989 881 64 196617 pvar hangup;#P hidden newex 953 656 107 196617 pvar incomingNumber;#P hidden newex 887 688 107 196617 pvar incomingNumber;#P window linecount 0;#P message 197 162 123 196617;#B color 11;#P noclick;#P objectname incomingNumber;#P window linecount 1;#P comment 190 145 100 196617 RING!;#B color 11;#P noclick;#P hidden newex 827 807 67 196617 pvar number;#P hidden newex 807 856 82 196617 pvar myNumber;#P window linecount 0;#P message 37 245 112 196617;#B color 5;#P noclick;#P objectname myNumber;#P window linecount 1;#P comment 18 228 100 196617 Get my number:;#P noclick;#P button 18 245 15 0;#P objectname number;#P comment 46 440 274 196617 Store settings (also stored \, when patch closed!);#B color 2;#P noclick;#P comment 37 201 100 196617 Hangup call;#P noclick;#P hidden newex 28 524 58 196617 pvar store;#P button 24 438 15 0;#P objectname store;#P button 18 199 15 0;#P objectname hangup;#P button 18 182 15 0;#P objectname answer;#P hidden button 868 689 15 0;#P hidden newex 861 739 104 196617 print "Incoming Call";#P hidden toggle 842 688 15 0;#P hidden newex 697 111 48 196617 loadbang;#P user multiSlider 234 37 29 36 0. 1. 1 3961 15 1 0 2 0 0 0;#M frgb 255 43 43;#M brgb 255 255 255;#M rgb2 127 127 127;#M rgb3 0 0 0;#M rgb4 37 52 91;#M rgb5 74 105 182;#M rgb6 112 158 18;#M rgb7 149 211 110;#M rgb8 187 9 201;#M rgb9 224 62 37;#M rgb10 7 114 128;#P objectname signalDisplay;#P hidden button 611 905 15 0;#P hidden newex 144 559 86 196617 pattrforward AT;#N vpatcher 10 59 341 377;#P inlet 135 34 15 0;#P inlet 224 48 15 0;#P window setfont "Sans Serif" 9.;#P newex 50 134 64 196617 fromsymbol;#P newex 50 160 170 196617 zl union;#P message 50 112 90 196617 bang;#P newex 50 50 62 196617 prepend set;#P inlet 50 30 15 0;#P outlet 50 246 15 0;#P connect 1 0 2 0;#P connect 7 0 3 0;#P connect 2 0 3 0;#P connect 3 0 5 0;#P connect 5 0 4 0;#P connect 4 0 0 0;#P connect 6 0 4 1;#P pop;#P hidden newobj 615 172 96 196617 p BuildInitSequence;#P hidden message 521 333 79 196617 +CCED=1\\\\\\\,8;#P hidden button 633 832 15 0;#P hidden message 461 333 51 196617 +CCED=0;#P hidden message 200 536 51 196617 +CFUN=1;#P hidden message 144 536 51 196617 +CFUN=0;#P hidden newex 39 767 97 196617 route +CME +CEER:;#N vpatcher 378 148 738 696;#P window setfont "Sans Serif" 9.;#P window linecount 1;#P message 190 297 42 196617 set ---;#P window linecount 0;#P newex 192 255 48 196617 loadbang;#N comlet On PIN Lock;#P outlet 118 457 15 0;#N comlet On PIN Ready;#P outlet 86 458 15 0;#P window linecount 1;#P newex 49 140 51 196617 tosymbol;#P message 49 253 55 196617 OK! Ready;#P message 111 253 52 196617 Enter PIN;#P newex 49 174 104 196617 sel READY "SIM PIN";#P window linecount 0;#P newex 264 50 51 196617 zl slice 1;#P newex 50 409 62 196617 prepend set;#P inlet 264 30 15 0;#P inlet 50 30 15 0;#P outlet 264 457 15 0;#P outlet 50 457 15 0;#P connect 2 0 9 0;#P connect 9 0 6 0;#P connect 6 0 8 0;#P connect 8 0 4 0;#P connect 7 0 4 0;#P connect 13 0 0 0;#P connect 4 0 0 0;#P connect 6 0 10 0;#P connect 6 1 7 0;#P connect 6 1 11 0;#P connect 12 0 13 0;#P connect 3 0 5 0;#P connect 5 0 1 0;#P pop;#P hidden newobj 701 817 69 196617 p PINReponse;#P hidden number 760 846 35 9 0 0 0 3 0 0 0 221 221 221 222 222 222 0 0 0;#P message 251 412 65 196617 ---;#B color 5;#P noclick;#P objectname pinState;#P hidden number 631 925 35 9 0 0 0 3 0 0 0 221 221 221 222 222 222 0 0 0;#N vpatcher 547 44 1473 685;#P origin 78 0;#P window setfont "Sans Serif" 9.;#P window linecount 1;#P newex 5 284 129 196617 if $i1==31 then 4 else $i1;#P newex 5 311 182 196617 if $i1>=2 && $i1<=30 then 3 else $i1;#P newex 4 337 123 196617 if $i1==1 then 2 else $i1;#P newex 3 376 123 196617 if $i1==0 then 1 else $i1;#P newex 0 401 129 196617 if $i1==99 then 0 else $i1;#N comlet Signal Quality (0-4);#P outlet 1 522 15 0;#P newex 263 442 103 196617 zmap -120 -51 0. 1.;#P comment 916 399 100 196617 << fluent dB signals;#P newex 397 355 182 196617 expr -109+(($i1-1)/28.0)*(109-53);#P newex 193 329 214 196617 if $i1>=2 && $i1<=30 then out2 $i1 else $i1;#P newex 193 351 140 196617 if $i1==31 then -51 else $i1;#P newex 193 269 140 196617 if $i1==1 then -111 else $i1;#P newex 193 248 140 196617 if $i1==0 then -113 else $i1;#P newex 193 225 146 196617 if $i1==99 then -120 else $i1;#P comment 209 203 100 196617 rssi;#N comlet Signal Quality (~);#P outlet 263 522 15 0;#P comment 688 136 100 196617 ber;#P newex 637 152 187 196617 if $i1 >= 0 && $i1<=7 then $i1 else -1;#P newex 1 54 646 196617 unpack i i i;#P inlet 1 14 15 0;#N comlet Error Rate (0-7);#P outlet 637 174 15 0;#N comlet Signal Quality (dB);#P outlet 193 523 15 0;#P window linecount 0;#P comment 724 33 100 196617 calculate the RSSI and error rate of the gsm signal report;#P comment 90 160 539 196617 Command: AT+CSQ Response: +CSQ: <rssi> \, <ber> Note: <rssi> and <ber> as defined below <rssi>: 0: -113 dBm or less 1: -111 dBm 2 to 30: -109 to Ð53 dBm 31: -51dBm or greater 99: not known or not detectable <ber>: 0...7 as RXQUAL values in the table GSM 5.08 99 not known or not detectable;#P comment 17 224 100 196617 rssi;#P connect 21 0 20 0;#P connect 5 0 6 0;#P connect 20 0 19 0;#P connect 22 0 21 0;#P connect 23 0 22 0;#P connect 6 0 24 0;#P connect 24 0 23 0;#P connect 6 0 11 0;#P connect 11 0 12 0;#P connect 12 0 13 0;#P connect 13 0 15 0;#P connect 15 0 14 0;#P connect 14 0 3 0;#P connect 16 0 3 0;#P connect 14 0 18 0;#P connect 16 0 18 0;#P connect 18 0 9 0;#P connect 15 1 16 0;#P connect 6 2 7 0;#P connect 7 0 4 0;#P pop;#P hidden newobj 612 866 67 196617 p CSQDecode;#P hidden number 669 897 35 9 0 0 0 3 0 0 0 221 221 221 222 222 222 0 0 0;#P hidden toggle 364 271 15 0;#P hidden newex 364 295 64 196617 metro 5000;#N vpatcher 310 44 637 363;#P window setfont "Sans Serif" 9.;#P window linecount 1;#P newex 89 191 20 196617 t b;#P newex 86 213 61 196617 delay 1000;#P message 83 234 43 196617 +CPIN?;#P newex 90 174 55 196617 pipe 2000;#P window linecount 0;#P newex 88 155 20 196617 t b;#P window linecount 1;#N vpatcher 509 44 821 593;#P window setfont "Sans Serif" 9.;#P window linecount 1;#P newex 16 128 119 196617 match 34 nn nn nn nn 34;#P newex 16 196 51 196617 zl slice 1;#P newex 19 72 68 196617 sprintf "%s";#P newex 68 356 36 196617 <= 13;#P newex 51 299 27 196617 t l l;#P newex 31 389 29 196617 gate;#P message 168 34 32 196617 t305;#P newex 68 329 34 196617 zl len;#P message 134 34 26 196617 test;#P newex 31 415 51 196617 zl slice 4;#P window linecount 0;#P message 52 34 79 196617 symbol "0000";#P window linecount 1;#P newex 31 443 40 196617 itoa;#P newex 85 167 48 196617 loadbang;#P newex 84 211 51 196617 tosymbol;#P newex 84 235 40 196617 atoi;#P message 85 191 70 196617 1234567890;#P newex 51 273 44 196617 zl union;#P newex 15 165 51 196617 zl slice 5;#P newex 18 96 40 196617 atoi;#P inlet 18 31 15 0;#P outlet 31 472 15 0;#P window linecount 0;#P comment 154 110 100 196617 filter out decimal numbers from 0-9;#P connect 21 0 4 0;#P connect 3 0 21 0;#P connect 4 0 20 0;#P connect 19 0 3 0;#P connect 2 0 19 0;#P connect 11 0 19 0;#P connect 13 0 19 0;#P connect 15 0 19 0;#P connect 18 0 16 0;#P connect 16 0 12 0;#P connect 12 0 10 0;#P connect 10 0 1 0;#P connect 17 0 16 1;#P connect 20 1 5 0;#P connect 5 0 17 0;#P connect 17 1 14 0;#P connect 14 0 18 0;#P connect 6 0 8 0;#P connect 8 0 7 0;#P connect 9 0 6 0;#P connect 7 0 5 1;#P pop;#P newobj 65 103 76 196617 p filterNumber;#P newex 65 132 91 196617 sprintf +CPIN=%s;#P message 62 50 68 196617 symbol <pin>;#P newex 62 74 81 196617 dialog Enter PIN;#P inlet 62 30 15 0;#P outlet 65 258 15 0;#P window linecount 0;#P comment 153 46 100 196617 Get the PIN from a dialog;#P comment 171 186 100 196617 dialog timing weirdness....;#P connect 3 0 5 0;#P connect 5 0 4 0;#P connect 4 0 7 0;#P connect 7 0 6 0;#P connect 6 0 2 0;#P connect 10 0 2 0;#P connect 11 0 10 0;#P connect 12 0 11 0;#P connect 6 0 8 0;#P connect 9 0 12 0;#P connect 8 0 9 0;#P pop;#P hidden newobj 370 437 47 196617 p getPIN;#P button 194 363 25 14;#P objectname enterPIN;#P hidden button 212 835 15 0;#P toggle 18 54 21 0;#P noclick;#P objectname open;#P hidden button 345 63 17 0;#P objectname loaded;#P hidden newex 192 903 94 196617 pattrforward RING;#P button 162 135 24 11;#P noclick;#P objectname RING;#P hidden button 212 864 15 0;#P number 88 375 35 9 1 20 3 3 0 0 0 74 156 97 222 222 222 0 0 0;#P objectname ringcount;#P hidden newex 679 88 76 196617 pvar ringcount;#P hidden button 539 22 15 0;#P hidden newex 335 652 54 196617 pvar open;#P hidden newex 615 192 47 196617 pvar AT;#P hidden button 498 656 16 0;#P hidden button 432 656 15 0;#P hidden newex 542 65 311 196617 route done init ringcount calltime;#P hidden newex 542 86 62 196617 pvar loaded;#P hidden newex 543 41 320 196617 patcherargs @init @baud 9600 @ringcount 1 @calltime 30 @debug 0;#P hidden message 693 402 14 196617 I;#P hidden message 839 442 46 196617 +CMEE?;#P hidden message 824 417 52 196617 +CMEE=1;#P hidden message 805 393 33 196617 E0;#P hidden newex 805 493 47 196617 pvar AT;#P hidden message 741 466 36 196617 +CIMI;#P hidden newex 708 496 47 196617 pvar AT;#P hidden message 708 419 39 196617 +CGMI;#P hidden message 719 443 44 196617 +CGMM;#P hidden message 466 430 43 196617 +CPINC;#P hidden newex 454 474 47 196617 pvar AT;#P hidden message 454 411 43 196617 +CPIN?;#P hidden newex 364 375 47 196617 pvar AT;#P hidden message 407 329 46 196617 +CSQ=1;#P hidden message 364 329 34 196617 +CSQ;#P hidden newex 347 205 47 196617 pvar AT;#P hidden message 347 186 21 196617 " ";#P hidden button 347 163 15 0;#P hidden number 40 896 35 9 0 0 0 3 0 0 0 221 221 221 222 222 222 0 0 0;#P hidden button 78 894 15 0;#P hidden newex 39 850 98 196617 route ERROR: Error;#P hidden message 28 551 34 196617 store;#P hidden button 28 582 15 0;#P hidden message 28 611 24 196617 &W;#P hidden message 173 637 48 196617 +CLIP=0;#P hidden message 73 574 21 196617 " ";#P button 18 326 15 11;#P noclick;#P objectname nocarrier;#P hidden button 160 901 15 0;#P hidden message 164 614 48 196617 +CLIP=1;#P hidden message 158 590 42 196617 +CLIP?;#P hidden button 73 551 15 0;#P hidden newex 621 782 215 196617 route +CSQ: +CSQN: +CPIN: +CPINC: +CNUM:;#P button 18 284 15 11;#P noclick;#P objectname OK;#P hidden newex 126 791 119 196617 route OK ERROR RING;#P window setfont "Sans Serif" 18.;#P hidden newex 1301 46 182 196626 fromsymbol;#B color 6;#P objectname modemReponse;#P hidden toggle 394 656 15 0;#P window setfont "Sans Serif" 9.;#P hidden message 299 560 49 196617 listports;#P hidden newex 300 624 277 196617 comport @listports @baud 9600 @watch 1 @token "13 10";#P hidden newex 63 1193 79 196617 print COMPORT;#P window linecount 2;#P hidden comment 713 165 301 196617 init with: ask for pin state \, no echo \, extended errors \, hardware info \, unsolicited reports for signal qualitiy (wavecom/sim900);#P window linecount 1;#P comment 37 184 100 196617 Answer call;#P noclick;#P hidden comment 681 372 100 196617 Hardware info;#P window linecount 2;#P hidden comment 519 420 100 196617 remove the pin (Wavecom):;#P window linecount 1;#P comment 192 207 100 196617 Idle;#B color 11;#P noclick;#P hidden comment 369 63 100 196617 loaded;#P window linecount 36;#P comment 323 50 13 196617 \; \; \; \; \; \; \; \; \; \; \; \; \; \; \; \; \; \; \; \; \; \; \; \; \; \; \; \; \; \; \; \; \; \; \; \;;#P window linecount 2;#P hidden comment 1302 80 184 196617 Do NOT delete \, this is the cetntral modem response collector!!!;#P window linecount 1;#P comment 8 17 314 196617 Mobilette v0.2 // staalplaat soundsystem // jens@lea.io // 1 2014;#P hidden comment 367 164 86 196617 Send a simple AT;#P hidden comment 57 1010 100 196617 LOGGING............;#P user panel 190 356 131 76;#X brgb 248 0 0;#X frgb 0 0 0;#X border 1;#X rounded 0;#X shadow 0;#X done;#P hidden newex 385 1317 113 196617 pattr debugState debug;#X prestore 1 0 0;#P objectname debugState;#P hidden newex 385 1348 199 196617 pattr "Seconds until auto hangup" calltime;#X prestore 1 0 90;#P objectname "Seconds until auto hangup";#P hidden newex 524 1234 279 196617 pattrstorage modem-settings @savemode 3 @autorestore 1;#X autorestore modem-settings.xml;#X client_rect 0 0 640 240;#X storage_rect 0 0 640 240;#P objectname modem-settings;#P user panel 17 434 304 48;#X brgb 100 0 42;#X frgb 0 0 0;#X border 1;#X rounded 0;#X shadow 0;#X done;#P user panel 161 202 159 146;#X brgb 71 0 116;#X frgb 0 0 0;#X border 1;#X rounded 0;#X shadow 0;#X done;#P user panel 16 356 172 76;#X brgb 0 63 198;#X frgb 0 0 0;#X border 1;#X rounded 0;#X shadow 0;#X done;#P background;#P hidden connect 341 0 182 0;#P hidden connect 100 0 35 0;#P hidden connect 35 0 34 0;#P hidden connect 34 0 33 0;#P hidden connect 265 0 285 0;#P hidden connect 264 0 285 0;#P hidden connect 31 0 285 0;#P hidden connect 33 0 285 0;#P hidden connect 120 0 83 0;#P hidden connect 83 0 36 0;#P hidden connect 83 1 36 0;#P hidden connect 36 0 38 0;#P hidden connect 36 1 38 0;#P hidden connect 324 0 325 0;#P hidden connect 325 0 322 0;#P hidden connect 320 0 313 0;#P hidden connect 247 0 243 0;#P hidden connect 243 0 18 0;#P hidden connect 26 0 31 0;#P hidden connect 36 0 37 0;#P hidden connect 36 1 37 0;#P hidden connect 318 0 312 0;#P hidden connect 345 0 243 1;#P hidden connect 344 0 243 1;#P hidden connect 244 0 243 1;#P hidden connect 186 0 344 0;#P hidden connect 321 0 326 0;#P hidden connect 326 0 323 0;#P hidden connect 23 0 176 0;#P hidden connect 83 2 23 0;#P hidden connect 316 0 315 0;#P hidden connect 319 0 315 0;#P hidden connect 85 0 90 0;#P hidden connect 84 0 90 0;#P hidden connect 27 0 286 0;#P hidden connect 28 0 286 0;#P hidden connect 32 0 286 0;#P hidden connect 23 1 29 0;#P hidden connect 36 0 29 0;#P hidden connect 36 1 29 0;#P hidden connect 29 0 173 0;#P hidden connect 316 0 328 0;#P hidden connect 23 2 69 0;#P hidden connect 67 0 69 0;#P hidden connect 336 0 171 0;#P hidden connect 23 2 72 0;#P hidden connect 171 0 345 0;#P hidden connect 23 3 179 0;#P hidden connect 179 0 115 0;#P hidden connect 317 0 314 0;#P hidden connect 253 0 20 0;#P hidden connect 19 0 185 0;#P hidden connect 350 0 19 0;#P hidden connect 20 0 19 0;#P hidden connect 179 0 178 0;#P hidden connect 19 1 63 0;#P hidden connect 39 0 40 0;#P hidden connect 40 0 41 0;#P hidden connect 363 0 76 0;#P hidden connect 76 0 75 0;#P hidden connect 301 0 42 0;#P hidden connect 75 0 42 0;#P hidden connect 343 0 44 0;#P hidden connect 220 0 44 0;#P hidden connect 125 0 44 0;#P hidden connect 88 0 44 0;#P hidden connect 86 0 44 0;#P hidden connect 43 0 44 0;#P hidden connect 42 0 44 0;#P hidden connect 231 0 44 0;#P hidden connect 362 0 44 0;#P hidden connect 239 0 74 0;#P hidden connect 348 0 349 0;#P hidden connect 349 0 350 0;#P hidden fasten 274 0 277 0 390 1303 376 1303 376 1219 390 1219;#P hidden fasten 277 1 281 0 457 1246 390 1246;#P hidden connect 281 0 274 0;#P hidden connect 19 1 21 0;#P hidden connect 372 0 371 0;#P hidden connect 364 0 372 0;#P hidden connect 365 0 364 0;#P hidden connect 19 2 60 0;#P hidden connect 306 0 45 0;#P hidden connect 124 0 46 0;#P hidden connect 74 0 46 0;#P hidden connect 45 0 46 0;#P hidden connect 47 0 46 0;#P hidden connect 229 0 327 0;#P hidden connect 327 0 231 0;#P hidden connect 373 0 369 0;#P hidden connect 366 0 367 0;#P hidden connect 368 0 367 0;#P hidden connect 369 0 367 0;#P hidden connect 19 3 61 0;#P hidden fasten 19 4 181 0 569 650 580 650 580 563 506 563;#P hidden connect 181 1 287 0;#P hidden connect 340 0 3 0;#P hidden connect 280 0 3 0;#P hidden connect 279 0 3 0;#P hidden connect 271 0 3 0;#P hidden connect 273 0 3 0;#P hidden connect 272 0 3 0;#P hidden connect 3 0 275 0;#P hidden connect 275 0 276 0;#P hidden connect 353 0 356 0;#P hidden connect 354 0 353 0;#P hidden connect 57 1 59 0;#P hidden connect 59 0 58 0;#P hidden connect 64 0 57 0;#P hidden connect 356 0 352 0;#P hidden connect 355 0 352 0;#P hidden connect 276 0 273 0;#P hidden connect 78 0 295 0;#P hidden connect 303 0 295 0;#P hidden connect 297 0 298 0;#P hidden connect 298 0 294 0;#P hidden connect 287 0 19 1;#P hidden connect 330 0 354 0;#P hidden connect 354 0 355 0;#P hidden connect 78 0 91 0;#P hidden connect 25 0 78 0;#P hidden connect 25 1 78 0;#P hidden connect 59 1 89 0;#P hidden connect 89 0 62 0;#P hidden connect 233 0 25 0;#P hidden connect 78 1 79 0;#P hidden connect 25 0 87 0;#P hidden connect 358 0 357 0;#P hidden connect 78 2 187 0;#P hidden connect 330 0 89 1;#P hidden connect 141 0 140 0;#P hidden connect 267 0 140 0;#P hidden connect 140 0 143 0;#P hidden connect 78 3 77 0;#P hidden connect 142 0 267 0;#P hidden connect 59 2 65 0;#P hidden connect 93 0 351 0;#P hidden connect 224 0 225 0;#P hidden connect 225 0 226 0;#P hidden connect 351 0 89 2;#P hidden connect 25 2 82 0;#P hidden connect 82 0 241 0;#P hidden connect 284 0 272 0;#P hidden connect 270 0 272 0;#P hidden connect 346 0 347 0;#P hidden connect 56 0 50 0;#P hidden connect 51 0 50 0;#P hidden connect 48 0 50 0;#P hidden connect 49 0 50 0;#P hidden connect 339 0 340 0;#P hidden connect 82 1 117 0;#P hidden connect 25 3 82 1;#P hidden connect 82 3 81 0;#P hidden connect 59 3 202 0;#P hidden connect 342 0 52 0;#P hidden connect 123 0 52 0;#P hidden connect 54 0 52 0;#P hidden connect 55 0 52 0;#P hidden connect 53 0 52 0;#P hidden connect 25 4 242 0;#P hidden connect 242 0 106 0;#P hidden connect 254 0 256 0;#P hidden connect 256 0 255 0;#P hidden connect 332 0 308 0;#P hidden connect 332 0 329 0;#P hidden connect 329 0 331 0;#P hidden connect 121 0 199 0;#P hidden connect 199 0 94 0;#P hidden connect 59 4 245 0;#P hidden connect 245 0 246 0;#P hidden connect 199 1 223 0;#P hidden connect 223 0 95 0;#P hidden connect 199 1 96 0;#P hidden connect 199 2 110 0;#P hidden connect 107 0 242 1;#P hidden connect 221 0 209 0;#P hidden connect 209 0 207 0;#P hidden connect 214 0 114 0;#P hidden connect 114 0 111 0;#P hidden connect 113 0 360 0;#P hidden connect 359 0 212 0;#P hidden connect 360 0 359 0;#P hidden connect 197 0 113 0;#P hidden connect 196 0 113 0;#P hidden connect 112 0 113 0;#P hidden connect 116 0 113 0;#P hidden connect 118 0 113 0;#P hidden connect 208 0 209 1;#P hidden connect 215 0 209 2;#P hidden connect 209 1 201 0;#P hidden connect 361 0 360 1;#P hidden connect 222 0 217 0;#P hidden connect 217 0 216 0;#P hidden connect 216 0 218 0;#P hidden connect 360 0 361 0;#P hidden connect 309 0 337 0;#P hidden connect 261 0 262 0;#P hidden connect 262 0 258 0;#P hidden connect 263 0 258 0;#P hidden connect 337 2 338 0;#P hidden connect 260 0 263 0;#P hidden connect 337 3 311 0;#P hidden connect 311 0 310 0;#P hidden connect 183 0 128 0;#P hidden connect 128 0 127 0;#P hidden connect 127 0 126 0;#P hidden connect 126 0 129 0;#P hidden connect 184 0 160 0;#P hidden connect 195 0 166 0;#P hidden connect 194 0 166 0;#P hidden connect 193 0 166 0;#P hidden connect 160 0 166 0;#P hidden connect 166 0 155 0;#P hidden connect 155 0 156 0;#P hidden connect 166 0 146 0;#P hidden connect 155 0 167 0;#P hidden connect 155 1 158 0;#P hidden connect 146 0 152 0;#P hidden connect 152 0 151 0;#P hidden connect 155 1 168 0;#P hidden connect 192 0 127 1;#P hidden connect 191 0 127 1;#P hidden connect 146 0 154 0;#P hidden connect 154 0 153 0;#P hidden connect 189 0 191 0;#P hidden connect 152 0 164 0;#P hidden connect 146 0 148 0;#P hidden connect 148 0 147 0;#P hidden connect 155 2 159 0;#P hidden connect 146 0 149 0;#P hidden connect 149 0 150 0;#P hidden connect 154 0 163 0;#P hidden connect 155 2 165 0;#P hidden connect 149 0 162 0;#P hidden connect 148 0 161 0;#P hidden connect 190 0 192 0;#P pop;